<?xml version="1.0" encoding="utf-8"?>
<!-- Generator: Adobe Illustrator 26.0.1, SVG Export Plug-In . SVG Version: 6.00 Build 0)  -->
<svg version="1.1" id="Слой_1" xmlns="http://www.w3.org/2000/svg" xmlns:xlink="http://www.w3.org/1999/xlink" x="0px" y="0px"
	 viewBox="0 0 48 48" style="enable-background:new 0 0 48 48;" xml:space="preserve">
<style type="text/css">
	.st0{fill:#FFC803;}
</style>
<g>
	<g>
		<path d="M39.6,2.3c0.2-0.6-0.5-1-0.9-0.5C36.8,4.9,35,8,33.1,11.1c0.1-0.4,0.2-0.8,0.3-1.1c0.1-0.3,0.2-0.7,0.3-1
			c0.2-0.6-0.6-0.9-0.9-0.4c-0.5,0.8-1,1.5-1.6,2.3c0,0,0,0,0,0c0-0.1,0.1-0.2,0.2-0.3c0.3-0.6,0.7-1.3,1-1.9
			c0.6-1.3,1.2-2.6,1.4-4.1c0-0.4,0.1-0.7,0.1-1.1c0-0.4-0.4-0.6-0.7-0.5c0,0,0-0.1,0-0.2c-0.1-0.3-0.4-0.5-0.7-0.4c0,0,0,0-0.1,0
			c0,0,0-0.1,0-0.2c0.2-0.3,0.2-0.7,0.4-1c0.1-0.2-0.1-0.5-0.3-0.6c-0.2-0.1-0.5,0-0.6,0.2c-0.2,0.4-0.5,0.8-0.8,1.2
			c0-0.2-0.1-0.2-0.2-0.3c-0.3-0.1-0.5,0-0.7,0.2C30,2.4,29.7,2.7,29.5,3c0,0,0,0,0,0c0,0-0.1,0-0.2,0c0-0.1,0-0.2,0.1-0.3
			c0.1-0.4,0.2-0.7,0.3-1.1c0.1-0.2,0-0.5-0.3-0.6c-0.3-0.1-0.5,0-0.7,0.2C28.1,2,27.5,2.9,27,3.7c0-0.2,0-0.4,0-0.6
			c0-0.6-0.9-0.7-1-0.2c-0.5,1.7-1,3.3-1.5,5c-0.4,0.8-0.8,1.5-1.2,2.4c-0.6,1-1.1,2-1.7,3c-0.6-0.5-1.3-1-2-1.5
			c-0.3-0.2-0.6-0.4-0.9-0.6c-0.9-1-1.8-1.9-2.8-2.7c-1-0.9-2.1-1.7-3.2-2.6c-0.4-0.3-1,0.3-0.7,0.7c0.4,0.6,0.8,1.2,1.2,1.8
			c0,0-0.2,0-0.2-0.1c-0.4-0.3-0.8-0.6-1.2-0.9C9.6,5.9,7.2,4.3,4.6,2.9c-0.4,0-0.7-0.2-1-0.4c-0.5-0.4-1,0.3-0.6,0.8
			C4.3,4.7,5.6,6,6.9,7.4C6.7,7.4,6.6,7.6,6.4,7.8C6.2,8.1,6.2,8.4,6.2,8.7C5.7,8.3,5.3,8,4.8,7.6c-0.2-0.2-0.5-0.2-0.8,0
			c-0.2,0.2-0.2,0.6,0,0.8C4.9,9,5.8,9.8,6.6,10.5c-0.1,0-0.2,0-0.2,0c-0.2,0-0.5-0.1-0.7-0.2l0,0c-0.1-0.1-0.2-0.1-0.3-0.1
			c-0.2,0-0.3-0.1-0.5-0.1c-0.5-0.3-1-0.5-1.5-0.8C2.9,9.1,2.5,9.6,2.7,10C2.2,9.8,1.7,9.6,1.3,9.4c-0.2-0.1-0.5,0-0.6,0.2
			c-0.2,0.2-0.2,0.4,0,0.6c1.2,2.2,3.3,3.6,5.2,5c0.5,0.4,1.1,0.8,1.7,1.2c2.2,1.7,4.5,3.5,6.8,5.1c0.5,0.4,1,0.7,1.6,1.1
			c0,0-0.1,0-0.2,0c-2.2-1.1-4.5-2.2-6.7-3.4c-1.7-0.9-3.4-1.7-5.1-2.6c-0.6-0.3-1,0.5-0.5,0.9c3.3,2.2,6.7,4.3,10.1,6.2
			c0.7,0.4,1.4,0.7,2,1.1c0,0.1-0.2,0.2-0.2,0.3c-0.2-0.1-0.5-0.2-0.8-0.2c-1.4-0.4-2.8-0.6-4.2-0.7c-0.6,0-0.7,0.9-0.2,1
			c1.5,0.3,3.1,0.6,4.5,0.9c-1,1.9-2.1,3.8-3.1,5.7c-1.4,2.6-2.7,5.2-3.9,7.8c-0.2,0.3-0.3,0.7-0.5,1c-0.1,0.2-0.1,0.5,0.2,0.7
			c0.2,0.2,0.5,0.2,0.7,0c0,0,0.1-0.1,0.2-0.2c-0.1,0.2-0.2,0.4-0.2,0.6c-0.2,0.3-0.3,0.7-0.4,1c-0.1,0.3-0.1,0.6,0.2,0.7
			c0,0,0.2,0,0.2,0c0,0,0,0,0,0.1c-0.3,0.6,0.5,1.1,1,0.5c1.5-2.2,3.1-4.4,4.6-6.6c-0.4,0.8-0.9,1.6-1.3,2.4c-0.2,0.2,0,0.5,0.1,0.6
			c0,0.1-0.1,0.2-0.2,0.3c-0.1,0.3-0.1,0.6,0.2,0.7c0.2,0.2,0.6,0,0.7-0.2c0-0.1,0.1-0.2,0.2-0.2c0,0,0,0.1,0,0.2
			c-0.1,0.3-0.2,0.7-0.3,1c-0.2,0.4,0.5,0.9,0.8,0.5c0.4-0.5,0.9-1.1,1.2-1.7c-0.2,0.8-0.5,1.6-0.8,2.4c-0.1,0.3,0.1,0.6,0.4,0.6
			c-0.3,1-0.7,2-1,2.9c-0.1,0.3,0.2,0.7,0.5,0.6c0,0.2,0.2,0.3,0.3,0.3c0.2,0.1,0.5,0,0.6-0.2c1.7-2.2,3.3-4.6,4.8-7
			c1.5-2.4,3-4.8,4.3-7.3c0.5-1,1-1.9,1.5-2.8c0.2,0.1,0.3,0.2,0.4,0.2c1.2,1.6,2.4,3.2,3.7,4.7c0.6,0.7,1.1,1.4,1.7,2.2
			c0.2,0.2,0.4,0.3,0.6,0.2c0.2-0.2,0.3-0.4,0.2-0.6c-0.3-0.5-0.6-1-0.8-1.5c0.5,0.5,1,1,1.5,1.4c0.8,0.7,1.5,1.4,2.2,2.2
			c0.4,0.3,1-0.1,0.7-0.5c-0.4-0.6-0.8-1.2-1.2-1.8c0.5,0.4,1,0.8,1.4,1.2c0.2,0.2,0.6,0.2,0.8,0s0.2-0.6,0-0.8
			c-0.7-0.6-1.4-1.2-2-1.8c1,0.8,1.9,1.6,2.8,2.4c0.1,0.1,0.3,0.2,0.4,0.2c0.2,0.2,0.3,0.3,0.5,0.4c0.2,0.2,0.6,0.2,0.8,0
			c0,0,0.1-0.2,0.2-0.2c0.5,0.3,0.9,0.7,1.4,1c0.2,0.2,0.6,0,0.7-0.2c0.2-0.2,0.2-0.5,0-0.7c-0.7-0.8-1.4-1.5-2-2.3
			c0.3,0.1,0.6,0.2,0.9,0.2c0.4,0.1,0.8-0.3,0.6-0.7c-0.1-0.2-0.2-0.5-0.4-0.7c0.6,0.4,1.2,0.8,1.9,1.2c0.2,0.2,0.4,0.1,0.6,0
			c1,0.7,2.1,1.3,3.2,1.8c0.3,0.2,0.7,0.3,1,0.4c0.2,0.1,0.5-0.1,0.6-0.3c0.1-0.2,0-0.5-0.2-0.7c-2.4-1.4-4.6-2.9-6.9-4.4
			c-3-3-6.1-5.9-9.3-8.7c-0.7-0.6-1.4-1.2-2.1-1.9c0.6-1.5,1.2-3,1.7-4.5c0.4-1,0.7-2.2,1-3.2c1-1.7,2-3.3,3-5
			c-1,2.3-2.1,4.6-3.2,6.9c-0.6,1.4-1.3,2.8-1.9,4.2c-0.1,0.2,0,0.5,0.2,0.7s0.6,0,0.7-0.2c1.6-3.5,3.3-6.9,4.9-10.3
			c0.5-1,0.9-1.9,1.4-2.9c0-0.2,0.1-0.3,0-0.4c0.2-0.4,0.4-0.8,0.6-1.2C38.3,5.1,39,3.7,39.6,2.3z M30.3,15.7
			c-0.1,0.2-0.2,0.4-0.3,0.6c0.3-1,0.6-2.1,1-3.2c0.3-0.5,0.7-1,1-1.5c-0.3,1-0.6,1.9-0.9,2.8C30.9,14.9,30.6,15.3,30.3,15.7z
			 M13.4,14.2c0.5,0.5,0.9,1,1.4,1.4c-0.8-0.6-1.5-1.2-2.3-1.9c0.2,0.1,0.3,0.2,0.5,0.2C13.1,14.1,13.2,14.2,13.4,14.2z M18.1,12.1
			c0.5,0.6,1,1.2,1.6,1.8c-0.2-0.2-0.5-0.5-0.8-0.7c-0.4-0.3-0.8-0.7-1.2-1c-0.2-0.2-0.5-0.5-0.7-0.7c0.2,0.1,0.3,0.2,0.5,0.3
			C17.7,11.8,17.9,12,18.1,12.1z M8.3,14.1c-0.2-0.2-0.4-0.4-0.7-0.6c0,0,0.1,0,0.2,0.1c1,0.8,1.9,1.6,2.8,2.5
			c-0.1,0-0.2-0.1-0.2-0.1C9.6,15.3,8.9,14.7,8.3,14.1z M24.2,18.1C24.2,18.1,24.1,18.1,24.2,18.1c0-0.2,0-0.3,0.1-0.4
			c0.1-0.1,0.2-0.2,0.3-0.3C24.4,17.7,24.2,17.9,24.2,18.1z M25,16.5C25,16.6,25,16.6,25,16.5c-0.2,0.3-0.3,0.6-0.4,0.8
			c0,0,0-0.1,0-0.2c0-0.2,0-0.4,0-0.6c0-0.1,0-0.2,0.1-0.2c0.7-1.6,1.5-3.2,2.2-4.8c0-0.1,0.1-0.2,0.2-0.3
			C26.5,13,25.7,14.8,25,16.5z M17.8,28.4c-0.1,0.3-0.2,0.5-0.3,0.8c-0.2,0.2-0.2,0.3-0.4,0.4C17.3,29.3,17.5,28.8,17.8,28.4z
			 M26.2,22.4c0,0,0-0.2,0-0.2c0.5,0.4,1,0.9,1.5,1.3c0,0.1-0.1,0.2-0.2,0.3C27.2,23.4,26.7,22.9,26.2,22.4z M20.4,28.2L20.4,28.2
			c-0.2,0.7-0.5,1.4-0.8,2.2c0.2-0.7,0.4-1.4,0.6-2C20.3,28.3,20.4,28.2,20.4,28.2z M28.5,24.5c0,0,0-0.1,0.1-0.2
			c0.2,0.2,0.5,0.5,0.7,0.8C29,24.9,28.7,24.7,28.5,24.5z M27.1,6.6C27,6.7,26.9,6.8,26.8,7c0,0,0-0.1,0-0.2
			c0.1-0.2,0.2-0.3,0.3-0.4C27.1,6.5,27.1,6.5,27.1,6.6z M25.4,8.8c0,0,0,0.2,0,0.2c0,0.1-0.1,0.2-0.2,0.2c0-0.1,0-0.2,0.1-0.3
			C25.4,8.9,25.4,8.9,25.4,8.8z M17.7,17c0.5,0.4,1,0.8,1.4,1.2c0,0,0,0,0,0c-0.2-0.1-0.3-0.2-0.5-0.3c-0.2-0.2-0.3-0.3-0.4-0.4
			c-0.3-0.3-0.6-0.6-0.9-0.9C17.5,16.8,17.6,16.9,17.7,17z M30.3,29.2c0.2-0.2,0.3-0.4,0.2-0.6c0.5,0.4,1,0.8,1.6,1.2
			c0.2,0.2,0.3,0.3,0.5,0.5c-0.6-0.2-1.2-0.4-1.7-0.6C30.7,29.5,30.5,29.4,30.3,29.2z M29.7,11.2c-0.2,0.2-0.3,0.5-0.4,0.8
			c0.2-0.6,0.3-1.3,0.5-1.9c0.4-1.3,0.9-2.6,1.3-3.8c0.4-0.4,0.8-0.8,1.2-1.1c0,0.5-0.2,1-0.3,1.4c-0.4,1.2-0.9,2.2-1.4,3.4
			c0,0.1,0,0.2-0.1,0.2C30.2,10.4,29.9,10.8,29.7,11.2z M32.2,3.7c-0.2,0.2-0.4,0.3-0.5,0.5c0-0.1,0.1-0.2,0.2-0.3
			C32,3.7,32.1,3.7,32.2,3.7C32.2,3.6,32.2,3.7,32.2,3.7z M11.2,8.9c0,0.1,0,0.2,0.2,0.2c0.3,0.2,0.6,0.5,0.8,0.7
			c-0.4-0.3-0.9-0.7-1.3-1C11,8.8,11.1,8.8,11.2,8.9z M7.1,14.3c-0.4-0.2-0.8-0.4-1.2-0.6c-0.1,0-0.2,0-0.2,0c-1-0.8-2.1-1.6-3-2.6
			c0.7,0.3,1.3,0.6,2,0.9C5.4,12.9,6.2,13.6,7.1,14.3z M21.4,32.3c0-0.2,0.1-0.3,0.2-0.4c0.2-0.5,0.5-1,0.8-1.5
			c-0.5,1.4-1,2.6-1.5,3.9c-0.4,1-0.8,2-1.2,3C20.2,35.6,20.9,33.9,21.4,32.3z M35,33.9c-0.8-0.8-1.6-1.6-2.4-2.4
			c0.5,0.2,1,0.4,1.5,0.6c0.7,0.8,1.4,1.6,2.2,2.4c-0.4-0.2-0.8-0.2-1.2-0.4C35.1,33.9,35.1,33.9,35,33.9z M14.9,9
			c0.2,0.2,0.3,0.3,0.5,0.5c-0.1,0-0.2-0.1-0.2-0.1C15.1,9.2,15.1,9.2,14.9,9z M8.9,7.2C8.7,7.1,8.5,7,8.4,6.8
			C8.2,6.6,7.9,6.6,7.7,6.7c-0.5-0.5-1-1.1-1.5-1.6c1.2,0.8,2.5,1.5,3.7,2.4C9.6,7.4,9.3,7.3,8.9,7.2z M9.8,10.4
			c0.6,0.6,1.2,1.2,1.8,1.9c-0.6-0.2-1.2-0.5-1.7-0.7c0,0-0.2-0.1-0.2-0.2C9,10.8,8.4,10.2,7.9,9.6c-0.2-0.3-0.6-0.6-0.7-1
			c0-0.3,0.2-0.4,0.4-0.4C8.3,8.9,9,9.7,9.8,10.4z M14.8,39.8c0.4-1.3,0.9-2.6,1.4-3.9c0.5-1,1-1.9,1.5-2.9c-0.1,0.3-0.2,0.6-0.3,1
			c-0.4,1.3-0.9,2.6-1.2,3.9C15.6,38.6,15.2,39.3,14.8,39.8z M23.8,32.3c-1.2,2.2-2.4,4.3-3.6,6.4c1.3-3,2.5-5.9,3.6-9
			c0.2,0.1,0.4,0.2,0.6,0.3c0.2,0.1,0.3,0.2,0.4,0.2C24.4,30.9,24.1,31.6,23.8,32.3z M37.8,36c-0.2-0.1-0.2-0.2-0.4-0.3
			c0,0,0.2,0,0.2,0C37.6,35.8,37.7,36,37.8,36z M36.8,33.3C36.8,33.3,36.8,33.3,36.8,33.3c1,0.5,1.9,1.2,2.6,2
			c-0.4-0.1-0.7-0.2-1.1-0.3C37.8,34.4,37.3,33.9,36.8,33.3z M28.5,21.9c-0.5-0.5-1-1-1.6-1.4c0.3-0.9,0.5-1.7,0.8-2.6
			c0.4-0.7,0.9-1.3,1.4-2c0,0,0.1-0.1,0.1-0.2c-0.4,1.3-0.8,2.6-1.2,3.9c-0.2,0.5,0.6,0.9,0.9,0.4c0.3-0.4,0.5-0.9,0.8-1.4
			C29.3,19.8,28.9,20.8,28.5,21.9z"/>
	</g>
	<g>
		<path class="st0" d="M39,1.7c0.2-0.6-0.5-1-0.9-0.5c-1.9,3.1-3.7,6.1-5.6,9.2c0.1-0.4,0.2-0.8,0.3-1.1c0.1-0.3,0.2-0.7,0.3-1
			c0.2-0.6-0.6-0.9-0.9-0.4c-0.5,0.8-1,1.5-1.6,2.3c0,0,0,0,0,0c0-0.1,0.1-0.2,0.2-0.3c0.3-0.6,0.7-1.3,1-1.9
			c0.6-1.3,1.2-2.6,1.4-4.1c0-0.4,0.1-0.7,0.1-1.1c0-0.4-0.4-0.6-0.7-0.5c0,0,0-0.1,0-0.2c-0.1-0.3-0.4-0.5-0.7-0.4c0,0,0,0-0.1,0
			c0,0,0-0.1,0-0.2c0.2-0.3,0.2-0.7,0.4-1c0.1-0.2-0.1-0.5-0.3-0.6c-0.2-0.1-0.5,0-0.6,0.2c-0.2,0.4-0.5,0.8-0.8,1.2
			c0-0.1-0.2-0.2-0.2-0.2c-0.3-0.1-0.5,0-0.7,0.2c-0.2,0.3-0.4,0.6-0.6,0.9c0,0,0,0,0,0c0,0-0.1,0-0.2,0c0-0.1,0-0.2,0.1-0.3
			C28.9,1.8,29,1.4,29.1,1c0.1-0.2,0-0.5-0.3-0.6c-0.3-0.1-0.5,0-0.7,0.2c-0.6,0.9-1.2,1.7-1.8,2.6c0-0.2,0-0.4,0-0.6
			c0-0.6-0.9-0.7-1-0.2c-0.5,1.7-1,3.3-1.5,5C23.4,8.2,23,9,22.6,9.8c-0.6,1-1.1,2-1.7,3c-0.6-0.5-1.3-1-2-1.5
			c-0.3-0.2-0.6-0.4-0.9-0.6c-0.9-1-1.8-1.9-2.8-2.7c-1-0.9-2.1-1.7-3.2-2.6c-0.4-0.3-1,0.3-0.7,0.7c0.4,0.6,0.8,1.2,1.2,1.8
			c0,0-0.2,0-0.2-0.1C12,7.6,11.7,7.4,11.3,7C9,5.3,6.6,3.7,4.1,2.2C3.7,2,3.4,1.9,3.1,1.7c-0.5-0.2-1,0.5-0.6,1
			C3.7,4.1,5,5.4,6.3,6.8C6.1,6.8,6,7,5.8,7.2C5.6,7.5,5.6,7.8,5.6,8.1C5.1,7.7,4.7,7.4,4.2,7C4,6.8,3.7,6.7,3.5,7
			c-0.2,0.2-0.2,0.6,0,0.8C4.3,8.4,5.2,9.2,6,9.9c-0.1,0-0.2,0-0.2,0c-0.2,0-0.5-0.1-0.7-0.2l0,0C5,9.6,4.8,9.6,4.8,9.6
			c-0.2,0-0.3-0.1-0.5-0.1C3.8,9.3,3.3,9,2.8,8.8C2.3,8.5,1.9,9,2.1,9.4C1.6,9.2,1.1,9,0.7,8.8C0.5,8.8,0.2,8.9,0.1,9
			C0,9.2-0.1,9.5,0.1,9.7c1.2,2.2,3.3,3.6,5.2,5c0.5,0.4,1.1,0.8,1.7,1.2c2.2,1.7,4.5,3.5,6.8,5.1c0.5,0.4,1,0.7,1.6,1.1
			c0,0-0.1,0-0.2,0c-2.2-1.1-4.5-2.2-6.7-3.4c-1.8-1-3.4-1.8-5.1-2.7c-0.6-0.3-1,0.5-0.5,0.8C6.2,19,9.6,21.1,13,23
			c0.7,0.4,1.4,0.7,2,1.1c0,0.1-0.2,0.2-0.2,0.3c-0.2-0.1-0.5-0.2-0.8-0.2c-1.4-0.4-2.8-0.6-4.2-0.7c-0.6,0-0.7,0.9-0.2,1
			c1.5,0.3,3.1,0.6,4.5,0.9c-1,1.9-2.1,3.8-3.1,5.7c-1.4,2.6-2.7,5.2-3.9,7.8c-0.2,0.3-0.3,0.7-0.5,1c-0.1,0.2-0.1,0.5,0.2,0.7
			c0.2,0.2,0.5,0.2,0.7,0c0,0,0.1-0.1,0.2-0.2c-0.1,0.2-0.2,0.4-0.2,0.6c-0.2,0.3-0.3,0.7-0.4,1C7,42.3,7,42.6,7.3,42.7
			c0,0,0.2,0,0.2,0c0,0,0,0,0,0.1c-0.3,0.6,0.5,1.1,1,0.5c1.5-2.2,3.1-4.4,4.6-6.6c-0.4,0.8-0.9,1.6-1.3,2.4c-0.2,0.2,0,0.5,0.1,0.6
			c0,0.1-0.1,0.2-0.2,0.3c-0.1,0.3-0.1,0.6,0.2,0.7c0.2,0.2,0.6,0,0.7-0.2c0-0.1,0.1-0.2,0.2-0.2c0,0,0,0.1,0,0.2
			c-0.1,0.3-0.2,0.7-0.3,1c-0.2,0.4,0.5,0.9,0.8,0.5c0.4-0.5,0.9-1.1,1.2-1.7c-0.2,0.8-0.5,1.6-0.8,2.4c-0.1,0.3,0.1,0.6,0.4,0.6
			c-0.3,1-0.7,2-1,2.9c-0.1,0.3,0.2,0.7,0.5,0.6c0,0.2,0.2,0.3,0.3,0.3c0.2,0.1,0.5,0,0.6-0.2c1.7-2.2,3.3-4.6,4.8-7
			c1.5-2.4,3-4.8,4.3-7.3c0.5-1,1-1.9,1.5-2.8c0.2,0.1,0.3,0.2,0.4,0.2c1.2,1.6,2.4,3.2,3.7,4.7c0.6,0.7,1.1,1.4,1.7,2.2
			c0.2,0.2,0.4,0.3,0.6,0.2c0.2-0.2,0.3-0.4,0.2-0.6c-0.3-0.5-0.6-1-0.8-1.5c0.5,0.5,1,1,1.5,1.4c0.8,0.7,1.5,1.4,2.2,2.2
			c0.4,0.3,1-0.1,0.7-0.5c-0.4-0.6-0.8-1.2-1.2-1.8c0.5,0.4,1,0.8,1.4,1.2c0.2,0.2,0.6,0.2,0.8,0c0.2-0.2,0.2-0.6,0-0.8
			c-0.7-0.6-1.4-1.2-2-1.8c1,0.8,1.9,1.6,2.8,2.4c0.1,0.1,0.3,0.2,0.4,0.2c0.2,0.2,0.3,0.3,0.5,0.4c0.2,0.2,0.6,0.2,0.8,0
			c0,0,0.1-0.2,0.2-0.2c0.5,0.3,0.9,0.7,1.4,1c0.2,0.2,0.6,0,0.7-0.2c0.2-0.2,0.2-0.5,0-0.7c-0.7-0.8-1.4-1.5-2-2.3
			c0.3,0.1,0.6,0.2,0.9,0.2c0.4,0.1,0.8-0.3,0.6-0.7c-0.1-0.2-0.2-0.5-0.4-0.7c0.6,0.4,1.2,0.8,1.9,1.2c0.2,0.2,0.4,0.1,0.6,0
			c1,0.7,2.1,1.3,3.2,1.8c0.3,0.2,0.7,0.3,1,0.4c0.2,0.1,0.5-0.1,0.6-0.3c0.1-0.2,0-0.5-0.2-0.7c-2.4-1.4-4.6-2.9-6.9-4.4
			c-3-3-6.1-5.9-9.3-8.7c-0.7-0.6-1.4-1.2-2.1-1.9c0.6-1.5,1.2-3,1.7-4.5c0.4-1,0.7-2.2,1-3.2c1-1.7,2-3.3,3-5
			c-1,2.3-2.1,4.6-3.2,6.9c-0.6,1.4-1.3,2.8-1.9,4.2c-0.1,0.2,0,0.5,0.2,0.7c0.2,0.2,0.6,0,0.7-0.2c1.6-3.1,3.2-6.6,4.9-10
			c0.5-1,0.9-1.9,1.4-2.9c0-0.2,0.1-0.3,0-0.4c0.2-0.4,0.4-0.8,0.6-1.2C37.7,4.5,38.4,3.1,39,1.7z M29.7,15.1
			c-0.1,0.2-0.2,0.4-0.3,0.6c0.3-1,0.6-2.1,1-3.2c0.3-0.5,0.7-1,1-1.5c-0.3,1-0.6,1.9-0.9,2.8C30.3,14.2,30,14.7,29.7,15.1z
			 M12.8,13.7c0.5,0.5,0.9,1,1.4,1.4c-0.8-0.6-1.5-1.2-2.3-1.9c0.2,0.1,0.3,0.2,0.5,0.2C12.5,13.5,12.7,13.6,12.8,13.7z M17.5,11.5
			c0.5,0.6,1,1.2,1.6,1.8c-0.2-0.2-0.5-0.5-0.8-0.7c-0.4-0.3-0.8-0.7-1.2-1c-0.2-0.2-0.5-0.5-0.7-0.7c0.2,0.1,0.3,0.2,0.5,0.3
			C17.1,11.2,17.3,11.4,17.5,11.5z M7.6,13.5c-0.2-0.2-0.4-0.4-0.7-0.6c0,0,0.1,0,0.2,0.1c1,0.8,1.9,1.6,2.8,2.5
			c-0.1,0-0.2-0.1-0.2-0.1C9,14.7,8.3,14.1,7.6,13.5z M23.5,17.5L23.5,17.5c0-0.2,0-0.3,0.1-0.4c0.1-0.1,0.2-0.2,0.3-0.3
			C23.8,17.1,23.7,17.3,23.5,17.5z M24.3,16L24.3,16c-0.2,0.3-0.3,0.6-0.4,0.8c0,0,0-0.1,0-0.2c0-0.2,0-0.4,0-0.6
			c0-0.1,0-0.2,0.1-0.2c0.7-1.6,1.5-3.2,2.2-4.8c0-0.1,0.1-0.2,0.2-0.3C25.9,12.5,25.2,14.2,24.3,16z M17.2,27.8
			c-0.1,0.3-0.2,0.5-0.3,0.8c-0.2,0.2-0.2,0.3-0.4,0.4C16.7,28.6,17,28.2,17.2,27.8z M25.7,21.8c0,0,0-0.2,0-0.2
			c0.5,0.4,1,0.9,1.5,1.3c0,0.1-0.1,0.2-0.2,0.3C26.6,22.7,26.1,22.2,25.7,21.8z M19.8,27.6L19.8,27.6c-0.2,0.7-0.5,1.4-0.8,2.2
			c0.2-0.7,0.4-1.4,0.6-2C19.7,27.7,19.8,27.7,19.8,27.6z M27.9,23.9c0,0,0-0.1,0.1-0.2c0.2,0.2,0.5,0.5,0.7,0.8
			C28.4,24.3,28.1,24.1,27.9,23.9z M26.4,6c-0.1,0.2-0.2,0.3-0.3,0.4c0,0,0-0.1,0-0.2c0.1-0.2,0.2-0.3,0.3-0.4
			C26.5,5.9,26.5,6,26.4,6z M24.8,8.2c0,0,0,0.2,0,0.2c0,0.1-0.1,0.2-0.2,0.2c0-0.1,0-0.2,0.1-0.3C24.8,8.3,24.8,8.2,24.8,8.2z
			 M17.1,16.4c0.5,0.4,1,0.8,1.4,1.2c0,0,0,0,0,0c-0.2-0.1-0.3-0.2-0.5-0.3c-0.2-0.2-0.3-0.3-0.4-0.4c-0.3-0.3-0.6-0.6-0.9-0.9
			C16.8,16.2,17,16.3,17.1,16.4z M29.6,28.6c0.2-0.2,0.3-0.4,0.2-0.6c0.5,0.4,1,0.8,1.6,1.2c0.2,0.2,0.3,0.3,0.5,0.5
			c-0.6-0.2-1.2-0.4-1.7-0.6C30.1,28.9,29.9,28.8,29.6,28.6z M29.1,10.6c-0.2,0.2-0.3,0.5-0.4,0.8c0.2-0.6,0.3-1.3,0.5-1.9
			c0.4-1.3,0.9-2.6,1.3-3.8c0.4-0.4,0.8-0.8,1.2-1.1c0,0.5-0.2,1-0.3,1.4c-0.4,1.2-0.9,2.2-1.4,3.4c0,0.1,0,0.2-0.1,0.2
			C29.5,9.8,29.3,10.2,29.1,10.6z M31.7,3c-0.2,0.2-0.4,0.3-0.5,0.5c0-0.1,0.1-0.2,0.2-0.3C31.4,3.1,31.5,3.1,31.7,3L31.7,3z
			 M10.6,8.2c0,0.1,0,0.2,0.2,0.2C11,8.7,11.3,9,11.5,9.2c-0.4-0.3-0.9-0.7-1.3-1C10.4,8.2,10.5,8.2,10.6,8.2z M6.4,13.7
			c-0.4-0.2-0.8-0.4-1.2-0.6c-0.1,0-0.2,0-0.2,0c-1-0.8-2.1-1.6-2.9-2.6c0.7,0.3,1.3,0.6,2,0.9C4.8,12.2,5.6,13,6.4,13.7z
			 M20.9,31.7c0-0.2,0.1-0.3,0.2-0.4c0.2-0.5,0.5-1,0.8-1.5c-0.5,1.4-1,2.6-1.5,3.9c-0.4,1-0.8,2-1.2,3C19.6,35,20.2,33.3,20.9,31.7
			z M34.4,33.2c-0.8-0.8-1.6-1.6-2.4-2.4c0.5,0.2,1,0.4,1.5,0.6c0.7,0.8,1.4,1.6,2.2,2.4c-0.4-0.2-0.8-0.2-1.2-0.4
			C34.5,33.3,34.5,33.3,34.4,33.2z M14.3,8.4c0.2,0.2,0.3,0.3,0.5,0.5c-0.1,0-0.2-0.1-0.2-0.1C14.5,8.6,14.4,8.5,14.3,8.4z M8.4,6.7
			C8.2,6.5,8,6.4,7.8,6.2C7.6,6.1,7.4,6,7.2,6.1C6.6,5.6,6.2,5,5.6,4.5C6.9,5.3,8.1,6,9.3,6.9C9,6.8,8.6,6.7,8.4,6.7z M9.1,9.8
			c0.6,0.6,1.2,1.2,1.8,1.9c-0.6-0.2-1.2-0.5-1.7-0.7C9.1,11,9,11,9,10.8C8.4,10.3,7.8,9.6,7.3,9C7,8.7,6.6,8.4,6.6,8
			c0-0.3,0.2-0.4,0.4-0.4C7.7,8.3,8.4,9.1,9.1,9.8z M14.1,39.3c0.4-1.3,0.9-2.6,1.4-3.9c0.5-1,1-1.9,1.5-2.9c-0.1,0.3-0.2,0.6-0.3,1
			c-0.4,1.3-0.9,2.6-1.2,3.9C15.1,38,14.6,38.6,14.1,39.3z M23.1,31.7C22,33.8,20.8,36,19.5,38c1.3-3,2.5-5.9,3.6-9
			c0.2,0.1,0.4,0.2,0.6,0.3c0.2,0.1,0.3,0.2,0.4,0.2C23.8,30.3,23.5,31,23.1,31.7z M37.2,35.4c-0.2-0.1-0.2-0.2-0.4-0.3
			c0,0,0.2,0,0.2,0C37,35.2,37.1,35.3,37.2,35.4z M36.2,32.7C36.2,32.7,36.2,32.7,36.2,32.7c1,0.5,1.9,1.2,2.6,2
			c-0.4-0.1-0.7-0.2-1.1-0.3C37.2,33.8,36.7,33.2,36.2,32.7z M27.9,21.3c-0.5-0.5-1-1-1.6-1.4c0.3-0.9,0.5-1.7,0.8-2.6
			c0.4-0.7,0.9-1.3,1.4-2c0,0,0.1-0.1,0.1-0.2c-0.4,1.3-0.8,2.6-1.2,3.9c-0.2,0.5,0.6,0.9,0.9,0.4c0.3-0.4,0.5-0.9,0.8-1.4
			C28.7,19.2,28.3,20.3,27.9,21.3z"/>
	</g>
</g>
</svg>
