<?xml version="1.0" encoding="utf-8"?>
<!-- Generator: Adobe Illustrator 26.0.1, SVG Export Plug-In . SVG Version: 6.00 Build 0)  -->
<svg version="1.1" id="Слой_1" xmlns="http://www.w3.org/2000/svg" xmlns:xlink="http://www.w3.org/1999/xlink" x="0px" y="0px"
	 viewBox="0 0 120 120" style="enable-background:new 0 0 120 120;" xml:space="preserve">
<style type="text/css">
	.st0{fill:#FFC803;}
</style>
<g>
	<g>
		<path d="M99.3,5.7c0.6-1.4-1.3-2.6-2.2-1.2c-4.7,7.7-9.4,15.4-14,23.2c0.2-1,0.5-1.9,0.7-2.8c0.2-0.8,0.5-1.7,0.7-2.5
			c0.4-1.4-1.4-2.2-2.3-1c-1.3,1.9-2.6,3.8-4,5.8c0,0-0.1,0-0.1-0.1c0.1-0.2,0.2-0.5,0.4-0.8c0.8-1.6,1.8-3.2,2.5-4.8
			c1.6-3.2,3-6.6,3.6-10.2c0.1-1,0.2-1.8,0.2-2.8c0-1.1-1-1.4-1.8-1.2c0-0.1-0.1-0.2-0.1-0.4c-0.2-0.7-1-1.2-1.7-1
			c-0.1,0-0.1,0-0.2,0.1c0-0.1,0.1-0.2,0.1-0.4c0.4-0.8,0.6-1.7,1-2.5c0.2-0.6-0.2-1.2-0.7-1.4c-0.6-0.2-1.2,0-1.6,0.5
			c-0.6,1.1-1.3,2-1.9,3.1c0-0.5-0.2-0.6-0.5-0.7c-0.7-0.2-1.3,0-1.7,0.6c-0.5,0.7-1.1,1.4-1.6,2.2c0,0-0.1,0-0.1-0.1
			c-0.1,0-0.2-0.1-0.4-0.1c0.1-0.2,0.1-0.5,0.2-0.7c0.2-1,0.6-1.8,0.8-2.8c0.2-0.6-0.1-1.3-0.8-1.6c-0.7-0.2-1.3,0-1.7,0.6
			c-1.6,2.2-3.1,4.3-4.4,6.5c0-0.5,0-1,0-1.4c0-1.6-2.3-1.8-2.6-0.4c-1.2,4.2-2.5,8.3-3.7,12.5c-1.1,1.9-2,3.8-3.1,5.9
			c-1.4,2.5-2.8,5-4.2,7.6c-1.6-1.3-3.2-2.6-5-3.8c-0.7-0.5-1.4-1-2.2-1.4c-2.2-2.4-4.6-4.7-7-6.8c-2.5-2.3-5.2-4.3-7.9-6.4
			c-1.1-0.7-2.4,0.7-1.7,1.7c1,1.6,2,3.1,3.1,4.6c-0.1-0.1-0.4-0.1-0.5-0.2c-1-0.7-1.9-1.4-2.9-2.2c-5.9-4.3-12-8.3-18.3-11.9
			c-1-0.1-1.7-0.5-2.5-1C8,5.1,6.7,6.8,7.7,8c3.1,3.5,6.4,6.8,9.6,10.3c-0.5,0.2-0.8,0.6-1.2,1.2c-0.5,0.7-0.6,1.4-0.5,2.2
			c-1.2-1-2.3-1.9-3.5-2.9c-0.6-0.5-1.3-0.6-1.9,0c-0.5,0.5-0.6,1.4,0,1.9c2.2,1.8,4.3,3.6,6.5,5.4c-0.2,0-0.4,0-0.6,0.1
			c-0.6-0.1-1.2-0.2-1.8-0.5l0,0c-0.2-0.2-0.6-0.2-0.8-0.2c-0.4-0.1-0.7-0.2-1.2-0.2c-1.3-0.7-2.5-1.3-3.8-2
			c-1.1-0.6-2.2,0.6-1.8,1.6c-1.2-0.5-2.3-1-3.5-1.4c-0.5-0.2-1.2,0.1-1.4,0.5c-0.4,0.5-0.4,1-0.1,1.6c3,5.4,8.2,9.1,13.1,12.6
			c1.3,1,2.8,1.9,4.2,2.9c5.6,4.3,11.3,8.7,17,12.7c1.3,1,2.6,1.8,4,2.8c-0.1,0-0.2-0.1-0.4-0.1c-5.5-2.8-11.2-5.6-16.7-8.4
			c-4.3-2.2-8.5-4.3-12.8-6.5c-1.4-0.7-2.5,1.3-1.2,2.2c8.2,5.5,16.7,10.8,25.3,15.6c1.7,1,3.4,1.8,5,2.8c-0.1,0.2-0.4,0.6-0.5,0.8
			c-0.6-0.2-1.3-0.4-1.9-0.6c-3.5-1-7-1.6-10.6-1.7c-1.4-0.1-1.7,2.2-0.4,2.4c3.8,0.7,7.7,1.4,11.4,2.3c-2.6,4.8-5.3,9.6-7.8,14.4
			c-3.4,6.5-6.7,13-9.8,19.6c-0.4,0.8-0.8,1.7-1.2,2.4c-0.2,0.6-0.2,1.3,0.4,1.8c0.6,0.4,1.3,0.4,1.8-0.1c0.1-0.1,0.2-0.2,0.5-0.5
			c-0.2,0.5-0.4,1-0.6,1.4c-0.4,0.8-0.7,1.7-1.1,2.6c-0.2,0.7-0.2,1.4,0.5,1.8c0.1,0.1,0.4,0.1,0.6,0.1c0,0.1-0.1,0.1-0.1,0.2
			c-0.7,1.6,1.3,2.8,2.4,1.3c3.8-5.5,7.8-11.1,11.5-16.6c-1.1,2-2.2,4-3.2,5.9c-0.4,0.6-0.1,1.2,0.2,1.6c-0.1,0.2-0.2,0.5-0.4,0.7
			c-0.2,0.7-0.2,1.4,0.5,1.8c0.6,0.4,1.6,0.1,1.8-0.5c0.1-0.2,0.2-0.4,0.4-0.6c0,0.1-0.1,0.2-0.1,0.4c-0.2,0.8-0.6,1.7-0.8,2.6
			c-0.4,1.1,1.3,2.2,2,1.2c1.1-1.3,2.2-2.8,3.1-4.2c-0.6,1.9-1.3,4-1.9,5.9c-0.2,0.8,0.2,1.4,1,1.6c-0.8,2.4-1.7,4.9-2.5,7.3
			c-0.2,0.8,0.5,1.7,1.3,1.6c0.1,0.4,0.4,0.7,0.7,0.8c0.6,0.2,1.2,0,1.6-0.5c4.3-5.6,8.3-11.5,12.1-17.5s7.4-12.1,10.7-18.4
			c1.3-2.4,2.5-4.8,3.7-7.1c0.4,0.2,0.7,0.4,1.1,0.6c3.1,4,6.1,7.9,9.2,11.9c1.4,1.8,2.8,3.6,4.2,5.4c0.4,0.5,1,0.7,1.6,0.4
			c0.6-0.4,0.7-1,0.4-1.6c-0.7-1.3-1.4-2.5-2-3.8c1.2,1.2,2.5,2.4,3.7,3.6c1.9,1.8,3.7,3.6,5.6,5.4c1,0.8,2.4-0.2,1.8-1.3
			c-1-1.6-1.9-3.1-2.9-4.6c1.2,1.1,2.4,2,3.6,3.1c0.6,0.5,1.4,0.5,1.9,0s0.5-1.4,0-1.9c-1.7-1.6-3.4-3.1-5-4.6c2.4,2,4.7,4,7.1,6
			c0.2,0.2,0.7,0.4,1.1,0.4c0.4,0.4,0.8,0.7,1.2,1.1c0.6,0.5,1.4,0.5,1.9,0c0.1-0.1,0.2-0.4,0.4-0.6c1.2,0.8,2.3,1.7,3.5,2.4
			c0.6,0.4,1.4,0.1,1.8-0.4c0.4-0.6,0.4-1.3-0.1-1.8c-1.7-1.9-3.4-3.8-5-5.8c0.7,0.2,1.4,0.4,2.2,0.5c1.1,0.2,1.9-0.8,1.4-1.8
			c-0.2-0.6-0.6-1.2-1-1.7c1.6,1.1,3.1,2,4.7,3.1c0.5,0.4,1.1,0.2,1.4-0.1c2.5,1.7,5.3,3.2,8,4.4c0.8,0.4,1.7,0.7,2.4,1
			c0.6,0.2,1.3-0.2,1.6-0.8c0.2-0.6,0-1.3-0.6-1.7c-5.9-3.6-11.6-7.2-17.4-11.1c-7.6-7.5-15.3-14.7-23.3-21.8
			c-1.7-1.6-3.5-3.1-5.3-4.7c1.4-3.7,2.9-7.6,4.3-11.3c1-2.6,1.8-5.4,2.6-8.1c2.5-4.2,5-8.3,7.6-12.5c-2.6,5.8-5.3,11.5-7.9,17.2
			c-1.6,3.5-3.2,7-4.8,10.5c-0.2,0.6-0.1,1.3,0.5,1.7c0.6,0.4,1.4,0.1,1.7-0.5c4.1-8.7,8.2-17.3,12.3-25.8c1.2-2.4,2.3-4.8,3.5-7.2
			c0.1-0.4,0.2-0.8,0-1.1c0.5-1,1-2,1.4-3C96,12.7,97.7,9.2,99.3,5.7z M76.1,39.2c-0.2,0.5-0.6,1-0.8,1.4c0.8-2.6,1.6-5.3,2.4-7.9
			c0.8-1.2,1.7-2.5,2.5-3.7c-0.7,2.4-1.4,4.7-2.2,7.1C77.5,37.1,76.7,38.1,76.1,39.2z M33.6,35.5c1.2,1.2,2.3,2.4,3.4,3.5
			c-1.9-1.6-3.8-3.1-5.8-4.7c0.5,0.2,0.8,0.4,1.3,0.6C33,35.2,33.2,35.4,33.6,35.5z M45.5,30.1c1.3,1.4,2.6,3,4,4.4
			c-0.6-0.6-1.3-1.2-1.9-1.7c-1.1-0.8-2-1.8-3.1-2.6c-0.6-0.6-1.2-1.2-1.7-1.8c0.5,0.2,0.8,0.5,1.3,0.7C44.5,29.5,45,29.8,45.5,30.1
			z M20.8,35.2c-0.6-0.5-1.1-1-1.7-1.6c0.1,0.1,0.2,0.1,0.4,0.2c2.4,2,4.7,4.1,7.1,6.2c-0.2-0.1-0.5-0.2-0.6-0.2
			C24.2,38.3,22.4,36.7,20.8,35.2z M60.6,45.3C60.6,45.3,60.4,45.3,60.6,45.3c0-0.4,0.1-0.7,0.2-1c0.2-0.2,0.5-0.5,0.7-0.8
			C61.2,44.1,60.8,44.7,60.6,45.3z M62.6,41.3C62.6,41.4,62.6,41.4,62.6,41.3c-0.4,0.7-0.7,1.4-1.1,2c0-0.1,0.1-0.2,0.1-0.4
			c0.1-0.6,0.1-1.1,0-1.6c0.1-0.2,0.1-0.5,0.2-0.6c1.8-4,3.7-8.1,5.5-12c0.1-0.2,0.2-0.5,0.4-0.7C66.4,32.5,64.5,37,62.6,41.3z
			 M44.6,71.1c-0.2,0.7-0.6,1.3-0.8,2c-0.4,0.4-0.6,0.7-1,1.1C43.4,73.2,44,72.1,44.6,71.1z M65.8,56c0-0.1,0.1-0.4,0.1-0.5
			c1.2,1.1,2.5,2.2,3.7,3.2c-0.1,0.2-0.2,0.5-0.4,0.7C68.2,58.4,67,57.2,65.8,56z M51.3,70.5h0.1c-0.7,1.8-1.4,3.6-2.2,5.5
			c0.5-1.7,1.1-3.4,1.6-4.9C51,70.9,51.2,70.6,51.3,70.5z M71.5,61.3c0.1-0.1,0.1-0.2,0.2-0.5c0.6,0.6,1.2,1.3,1.8,1.9
			C72.8,62.2,72.1,61.7,71.5,61.3z M67.9,16.3c-0.2,0.4-0.5,0.7-0.7,1.1c0-0.1,0-0.2,0-0.4c0.2-0.4,0.5-0.7,0.8-1.1
			C68,16.1,68,16.2,67.9,16.3z M63.8,22c0,0.1,0,0.4-0.1,0.5c-0.1,0.2-0.2,0.4-0.4,0.6c0.1-0.2,0.1-0.5,0.2-0.7
			C63.7,22.2,63.7,22.1,63.8,22z M44.4,42.5c1.2,1.1,2.4,2,3.6,3.1c0,0,0,0.1-0.1,0.1c-0.4-0.2-0.8-0.5-1.3-0.8
			c-0.4-0.4-0.7-0.7-1-1.1c-0.7-0.7-1.4-1.4-2.2-2.2C43.8,42,44.1,42.3,44.4,42.5z M75.9,73c0.5-0.4,0.7-1,0.5-1.4
			c1.3,1.1,2.6,2,4.1,3.1c0.4,0.5,0.8,0.8,1.2,1.3c-1.4-0.5-2.9-1.1-4.3-1.6C77,73.9,76.4,73.5,75.9,73z M74.6,27.9
			c-0.4,0.6-0.7,1.3-1.1,1.9c0.4-1.6,0.8-3.2,1.2-4.8c1.1-3.2,2.2-6.5,3.2-9.6c1-1,1.9-1.9,3-2.8c-0.1,1.2-0.5,2.4-0.8,3.5
			c-1,2.9-2.3,5.6-3.5,8.4c-0.1,0.2-0.1,0.4-0.2,0.6C75.7,25.9,75.1,26.9,74.6,27.9z M80.8,9c-0.5,0.4-1,0.7-1.3,1.2
			c0.1-0.2,0.2-0.5,0.4-0.7C80.2,9.2,80.5,9.1,80.8,9C80.8,8.9,80.8,9,80.8,9z M28.1,22.1c0.1,0.2,0.1,0.5,0.4,0.6
			c0.7,0.6,1.4,1.2,2,1.8c-1.1-0.8-2.2-1.8-3.2-2.6C27.5,22,27.8,22,28.1,22.1z M17.8,35.8c-1-0.5-2-1-3-1.4
			c-0.2-0.1-0.4-0.1-0.6-0.1c-2.6-1.9-5.3-4-7.4-6.5c1.7,0.7,3.2,1.4,4.9,2.2C13.7,32.1,15.7,34,17.8,35.8z M53.8,80.7
			c0.1-0.4,0.2-0.7,0.4-1.1c0.6-1.2,1.3-2.4,2-3.7c-1.2,3.4-2.5,6.6-3.8,9.9c-1,2.5-2,5-3.1,7.5C50.8,89.1,52.4,84.9,53.8,80.7z
			 M87.9,84.7c-1.9-2-4-4.1-6-6c1.2,0.5,2.5,1,3.7,1.4c1.8,1.9,3.6,4,5.4,5.9c-1-0.4-1.9-0.6-2.9-1C88,84.8,88,84.8,87.9,84.7z
			 M37.5,22.4c0.5,0.4,0.8,0.7,1.3,1.2c-0.2-0.1-0.5-0.2-0.6-0.2C38,23,37.8,22.8,37.5,22.4z M22.4,18c-0.5-0.4-1-0.7-1.4-1.1
			c-0.5-0.4-1.1-0.5-1.6-0.2c-1.3-1.3-2.5-2.8-3.8-4.1c3.1,1.9,6.2,3.8,9.2,6C24.1,18.4,23.3,18.2,22.4,18z M24.5,25.9
			c1.4,1.6,3,3.1,4.4,4.7c-1.4-0.6-2.9-1.2-4.3-1.7c-0.1-0.1-0.4-0.2-0.5-0.5c-1.4-1.4-2.9-3-4.2-4.6c-0.6-0.7-1.6-1.6-1.7-2.5
			c-0.1-0.7,0.4-1,1-1.1C20.9,22.2,22.7,24.1,24.5,25.9z M37.1,99.7c1.1-3.2,2.2-6.5,3.4-9.7c1.3-2.4,2.5-4.8,3.8-7.2
			c-0.2,0.8-0.5,1.6-0.7,2.4c-1.1,3.2-2.2,6.6-3.1,9.9C39.2,96.7,38.1,98.3,37.1,99.7z M59.6,80.7c-2.9,5.4-5.9,10.8-9,16
			c3.2-7.5,6.2-14.9,9.1-22.5c0.5,0.2,1,0.6,1.4,0.8c0.4,0.2,0.7,0.5,1.1,0.6C61.3,77.4,60.4,79,59.6,80.7z M94.7,90.1
			c-0.4-0.2-0.6-0.5-1-0.7c0.1,0,0.4,0.1,0.5,0.1C94.4,89.7,94.5,90,94.7,90.1z M92.2,83.3c0.1,0,0.2,0,0.2,0c2.4,1.3,4.6,2.9,6.2,5
			c-1-0.2-1.8-0.5-2.8-0.7C94.7,86.1,93.5,84.7,92.2,83.3z M71.5,54.8c-1.3-1.2-2.6-2.4-4.1-3.5c0.7-2.2,1.3-4.3,1.9-6.4
			c1.1-1.7,2.3-3.2,3.4-4.9c0.1-0.1,0.2-0.2,0.2-0.4c-1,3.2-1.9,6.6-3,9.9c-0.4,1.3,1.6,2.2,2.3,1c0.7-1.1,1.3-2.3,2-3.4
			C73.5,49.5,72.4,52.1,71.5,54.8z"/>
	</g>
	<g>
		<path class="st0" d="M97.8,4.2c0.6-1.4-1.3-2.6-2.2-1.2c-4.7,7.7-9.4,15.4-14,23.1c0.2-1,0.5-1.9,0.7-2.8c0.2-0.8,0.5-1.7,0.7-2.5
			c0.4-1.4-1.4-2.2-2.3-1c-1.3,1.9-2.6,3.8-4,5.8c0,0-0.1,0-0.1-0.1c0.1-0.2,0.2-0.5,0.4-0.8c0.8-1.6,1.8-3.2,2.5-4.8
			c1.6-3.2,3-6.6,3.6-10.2c0.1-1,0.2-1.8,0.2-2.8c0-1.1-1-1.4-1.8-1.2c0-0.1-0.1-0.2-0.1-0.4c-0.2-0.7-1-1.2-1.7-1
			c-0.1,0-0.1,0-0.2,0.1c0-0.1,0.1-0.2,0.1-0.4c0.4-0.8,0.6-1.7,1-2.5c0.2-0.6-0.2-1.2-0.7-1.4c-0.6-0.2-1.2,0-1.6,0.5
			c-0.6,1.1-1.3,2-1.9,3.1c-0.1-0.2-0.4-0.4-0.6-0.5c-0.7-0.2-1.3,0-1.7,0.6c-0.5,0.7-1.1,1.4-1.6,2.2c0,0-0.1,0-0.1-0.1
			c-0.1,0-0.2-0.1-0.4-0.1c0.1-0.2,0.1-0.5,0.2-0.7c0.2-0.8,0.5-1.8,0.7-2.8c0.2-0.6-0.1-1.3-0.8-1.6c-0.7-0.2-1.3,0-1.7,0.6
			c-1.6,2.2-3.1,4.3-4.4,6.5c0-0.5,0-1,0-1.4c0-1.6-2.3-1.8-2.6-0.4c-1.2,4.2-2.5,8.3-3.7,12.5c-1.1,1.9-2,3.8-3.1,5.9
			c-1.4,2.5-2.8,5-4.2,7.6c-1.6-1.3-3.2-2.6-5-3.8c-0.7-0.5-1.4-1-2.2-1.4c-2.2-2.4-4.6-4.7-7-6.8c-2.5-2.3-5.2-4.3-7.9-6.4
			c-1.1-0.7-2.4,0.7-1.7,1.7c1,1.6,2,3.1,3.1,4.6c-0.1-0.1-0.4-0.1-0.5-0.2c-1-0.7-1.9-1.4-2.9-2.2C22.7,13,16.6,9,10.2,5.4
			C9.4,4.9,8.6,4.5,7.8,4.1C6.5,3.6,5.2,5.4,6.2,6.5c3.1,3.5,6.4,6.8,9.6,10.3C15.4,17,15,17.4,14.6,18c-0.5,0.7-0.6,1.4-0.5,2.2
			c-1.2-1-2.3-1.9-3.5-2.9c-0.6-0.5-1.3-0.6-1.9,0c-0.5,0.5-0.6,1.4,0,1.9c2.2,1.8,4.3,3.6,6.5,5.4c-0.2,0-0.4,0-0.6,0.1
			c-0.6-0.1-1.2-0.2-1.8-0.5l0,0C12.6,24,12.2,24,12,24c-0.4-0.1-0.7-0.2-1.2-0.2c-1.3-0.7-2.5-1.3-3.8-2c-1.1-0.6-2.2,0.6-1.8,1.6
			c-1.2-0.5-2.3-1-3.5-1.4c-0.5-0.2-1.2,0.1-1.4,0.5c-0.2,0.5-0.4,1.1-0.1,1.6c3,5.4,8.2,9.1,13.1,12.6c1.3,1,2.8,1.9,4.2,2.9
			c5.6,4.3,11.3,8.7,17,12.7c1.3,1,2.6,1.8,4,2.8c-0.1,0-0.2-0.1-0.4-0.1c-5.5-2.8-11.2-5.6-16.7-8.4C17,44.2,12.8,42,8.5,39.9
			C7.1,39.2,6,41.2,7.3,42c8.2,5.5,16.7,10.8,25.3,15.6c1.7,1,3.4,1.8,5,2.8c-0.1,0.2-0.4,0.6-0.5,0.8c-0.6-0.2-1.3-0.4-1.9-0.6
			c-3.5-1-7-1.6-10.6-1.7c-1.4-0.1-1.7,2.2-0.4,2.4c3.8,0.7,7.7,1.4,11.4,2.3c-2.6,4.8-5.3,9.6-7.8,14.4c-3.4,6.5-6.7,13-9.8,19.6
			c-0.4,0.8-0.8,1.7-1.2,2.4c-0.2,0.6-0.2,1.3,0.4,1.8c0.6,0.4,1.3,0.4,1.8-0.1c0.1-0.1,0.2-0.2,0.5-0.5c-0.2,0.5-0.4,1-0.6,1.4
			c-0.4,0.8-0.7,1.7-1.1,2.6c-0.2,0.7-0.2,1.4,0.5,1.8c0.1,0.1,0.4,0.1,0.6,0.1c0,0.1-0.1,0.1-0.1,0.2c-0.7,1.6,1.3,2.8,2.4,1.3
			c3.8-5.5,7.8-11.1,11.5-16.6c-1.1,2-2.2,4-3.2,5.9c-0.4,0.6-0.1,1.2,0.2,1.6c-0.1,0.2-0.2,0.5-0.4,0.7c-0.2,0.7-0.2,1.4,0.5,1.8
			c0.6,0.4,1.6,0.1,1.8-0.5c0.1-0.2,0.2-0.4,0.4-0.6c0,0.1-0.1,0.2-0.1,0.4c-0.2,0.8-0.6,1.7-0.8,2.6c-0.4,1.1,1.3,2.2,2,1.2
			c1.1-1.3,2.2-2.8,3.1-4.2c-0.6,1.9-1.3,4-1.9,5.9c-0.2,0.8,0.2,1.4,1,1.6c-0.8,2.4-1.7,4.9-2.5,7.3c-0.2,0.8,0.5,1.7,1.3,1.6
			c0.1,0.4,0.4,0.7,0.7,0.8c0.6,0.2,1.2,0,1.6-0.5c4.3-5.6,8.3-11.5,12.1-17.5s7.4-12.1,10.7-18.4c1.3-2.4,2.5-4.8,3.7-7.1
			c0.4,0.2,0.7,0.4,1.1,0.6c3.1,4,6.1,7.9,9.2,11.9c1.4,1.8,2.8,3.6,4.2,5.4c0.4,0.5,1,0.7,1.6,0.4c0.6-0.4,0.7-1,0.4-1.6
			c-0.7-1.3-1.4-2.5-2-3.8c1.2,1.2,2.5,2.4,3.7,3.6c1.9,1.8,3.7,3.6,5.6,5.4c1,0.8,2.4-0.2,1.8-1.3c-1-1.6-1.9-3.1-2.9-4.6
			c1.2,1.1,2.4,2,3.6,3.1c0.6,0.5,1.4,0.5,1.9,0s0.5-1.4,0-1.9c-1.7-1.6-3.4-3.1-5-4.6c2.4,2,4.7,4,7.1,6c0.2,0.2,0.7,0.4,1.1,0.4
			c0.4,0.4,0.8,0.7,1.2,1.1c0.6,0.5,1.4,0.5,1.9,0c0.1-0.1,0.2-0.4,0.4-0.6c1.2,0.8,2.3,1.7,3.5,2.4c0.6,0.4,1.4,0.1,1.8-0.4
			c0.4-0.6,0.4-1.3-0.1-1.8c-1.7-1.9-3.4-3.8-5-5.8c0.7,0.2,1.4,0.4,2.2,0.5c1.1,0.2,1.9-0.8,1.4-1.8c-0.2-0.6-0.6-1.2-1-1.7
			c1.6,1.1,3.1,2,4.7,3.1c0.5,0.4,1.1,0.2,1.4-0.1c2.5,1.7,5.3,3.2,8,4.4c0.8,0.4,1.7,0.7,2.4,1c0.6,0.2,1.3-0.2,1.6-0.8
			c0.2-0.6,0-1.3-0.6-1.7c-5.9-3.6-11.6-7.2-17.4-11.1c-7.6-7.5-15.3-14.7-23.3-21.8c-1.7-1.6-3.5-3.1-5.3-4.7
			c1.4-3.7,2.9-7.6,4.3-11.3c1-2.6,1.8-5.4,2.6-8.1c2.5-4.2,5-8.3,7.6-12.5c-2.6,5.8-5.3,11.5-7.9,17.2c-1.6,3.5-3.2,7-4.8,10.5
			c-0.2,0.6-0.1,1.3,0.5,1.7c0.6,0.4,1.4,0.1,1.7-0.5c4-7.8,8-16.5,12.2-25.1c1.2-2.4,2.3-4.8,3.5-7.2c0.1-0.4,0.2-0.8,0-1.1
			c0.5-1,1-2,1.4-3C94.6,11.2,96.2,7.7,97.8,4.2z M74.6,37.6c-0.2,0.5-0.6,1-0.8,1.4c0.8-2.6,1.6-5.3,2.4-7.9
			c0.8-1.2,1.7-2.5,2.5-3.7c-0.7,2.4-1.4,4.7-2.2,7.1C75.9,35.5,75.3,36.6,74.6,37.6z M32.1,34.1c1.2,1.2,2.3,2.4,3.4,3.5
			c-1.9-1.6-3.8-3.1-5.8-4.7c0.5,0.2,0.8,0.4,1.3,0.6C31.4,33.6,31.8,33.9,32.1,34.1z M43.9,28.6c1.3,1.4,2.6,3,4,4.4
			c-0.6-0.6-1.3-1.2-1.9-1.7c-1.1-0.8-2-1.8-3.1-2.6c-0.6-0.6-1.2-1.2-1.7-1.8c0.5,0.2,0.8,0.5,1.3,0.7C42.9,28,43.4,28.3,43.9,28.6
			z M19.2,33.7c-0.6-0.5-1.1-1-1.7-1.6c0.1,0.1,0.2,0.1,0.4,0.2c2.4,2,4.7,4.1,7.1,6.2c-0.2-0.1-0.5-0.2-0.6-0.2
			C22.7,36.7,20.9,35.2,19.2,33.7z M59,43.7L59,43.7c0-0.4,0.1-0.7,0.2-1c0.2-0.2,0.5-0.5,0.7-0.8C59.6,42.6,59.4,43.2,59,43.7z
			 M61,39.9L61,39.9c-0.4,0.7-0.7,1.4-1.1,2c0-0.1,0.1-0.2,0.1-0.4c0.1-0.6,0.1-1.1,0-1.6c0.1-0.2,0.1-0.5,0.2-0.6
			c1.8-4,3.7-8.1,5.5-12c0.1-0.2,0.2-0.5,0.4-0.7C64.9,31.1,63.1,35.4,61,39.9z M43.2,69.6c-0.2,0.7-0.6,1.3-0.8,2
			c-0.4,0.4-0.6,0.7-1,1.1C42,71.6,42.6,70.6,43.2,69.6z M64.4,54.5c0-0.1,0.1-0.4,0.1-0.5c1.2,1.1,2.5,2.2,3.7,3.2
			c-0.1,0.2-0.2,0.5-0.4,0.7C66.8,56.8,65.6,55.6,64.4,54.5z M49.8,69h0.1c-0.7,1.8-1.4,3.6-2.2,5.5c0.5-1.7,1.1-3.4,1.6-4.9
			C49.5,69.3,49.6,69.2,49.8,69z M69.9,59.7c0.1-0.1,0.1-0.2,0.2-0.5c0.6,0.6,1.2,1.3,1.8,1.9C71.2,60.7,70.6,60.2,69.9,59.7z
			 M66.3,14.9c-0.2,0.4-0.5,0.7-0.7,1.1c0-0.1,0-0.2,0-0.4c0.2-0.4,0.5-0.7,0.8-1.1C66.4,14.6,66.4,14.8,66.3,14.9z M62.2,20.4
			c0,0.1,0,0.4-0.1,0.5c-0.1,0.2-0.2,0.4-0.4,0.6c0.1-0.2,0.1-0.5,0.2-0.7C62.1,20.6,62.2,20.5,62.2,20.4z M42.8,41
			c1.2,1.1,2.4,2,3.6,3.1c0,0,0,0.1-0.1,0.1c-0.4-0.2-0.8-0.5-1.3-0.8c-0.4-0.4-0.7-0.7-1-1.1c-0.7-0.7-1.4-1.4-2.2-2.2
			C42.2,40.5,42.6,40.7,42.8,41z M74.3,71.5c0.5-0.4,0.7-1,0.5-1.4c1.3,1.1,2.6,2,4.1,3.1c0.4,0.5,0.8,0.8,1.2,1.3
			c-1.4-0.5-2.9-1.1-4.3-1.6C75.4,72.4,74.9,72,74.3,71.5z M73,26.3c-0.4,0.6-0.7,1.3-1.1,1.9c0.4-1.6,0.8-3.2,1.2-4.8
			c1.1-3.2,2.2-6.5,3.2-9.6c1-1,1.9-1.9,3-2.8c-0.1,1.2-0.5,2.4-0.8,3.5c-1,2.9-2.3,5.6-3.5,8.4c-0.1,0.2-0.1,0.4-0.2,0.6
			C74.1,24.5,73.6,25.5,73,26.3z M79.4,7.4c-0.5,0.4-1,0.7-1.3,1.2c0.1-0.2,0.2-0.5,0.4-0.7C78.7,7.7,79,7.5,79.4,7.4L79.4,7.4z
			 M26.5,20.5c0.1,0.2,0.1,0.5,0.4,0.6c0.7,0.6,1.4,1.2,2,1.8c-1.1-0.8-2.2-1.8-3.2-2.6C26,20.4,26.3,20.5,26.5,20.5z M16.2,34.3
			c-1-0.5-2-1-3-1.4c-0.2-0.1-0.4-0.1-0.6-0.1c-2.6-1.9-5.2-4.1-7.3-6.5c1.7,0.7,3.2,1.4,4.9,2.2C12.1,30.5,14.2,32.4,16.2,34.3z
			 M52.4,79.2c0.1-0.4,0.2-0.7,0.4-1.1c0.6-1.2,1.3-2.4,2-3.7c-1.2,3.4-2.5,6.6-3.8,9.9c-1,2.5-2,5-3.1,7.5
			C49.3,87.6,50.8,83.4,52.4,79.2z M86.3,83.1c-1.9-2-4-4.1-6-6c1.2,0.5,2.5,1,3.7,1.4c1.8,1.9,3.6,4,5.4,5.9c-1-0.4-1.9-0.6-2.9-1
			C86.6,83.4,86.5,83.3,86.3,83.1z M36,21c0.5,0.4,0.8,0.7,1.3,1.2c-0.2-0.1-0.5-0.2-0.6-0.2C36.5,21.5,36.2,21.2,36,21z M21,16.6
			c-0.5-0.4-1-0.7-1.4-1.1S18.5,15,18,15.2c-1.3-1.3-2.5-2.8-3.8-4.1c3.1,1.9,6.2,3.8,9.2,6C22.6,16.9,21.7,16.7,21,16.6z
			 M22.9,24.5c1.4,1.6,3,3.1,4.4,4.7c-1.4-0.6-2.9-1.2-4.3-1.7c-0.1-0.1-0.4-0.2-0.5-0.5c-1.4-1.4-2.9-3-4.2-4.6
			c-0.6-0.7-1.6-1.6-1.7-2.5c-0.1-0.7,0.4-1,1-1.1C19.3,20.6,21.1,22.6,22.9,24.5z M35.5,98.3c1.1-3.2,2.2-6.5,3.4-9.7
			c1.3-2.4,2.5-4.8,3.8-7.2c-0.2,0.8-0.5,1.6-0.7,2.4c-1.1,3.2-2.2,6.6-3.1,9.9C37.8,95.2,36.7,96.7,35.5,98.3z M58,79.2
			c-2.9,5.4-5.9,10.8-9,16c3.2-7.5,6.2-14.9,9.1-22.5c0.5,0.2,1,0.6,1.4,0.8c0.4,0.2,0.7,0.5,1.1,0.6C59.7,75.8,58.9,77.5,58,79.2z
			 M93.2,88.5c-0.4-0.2-0.6-0.5-1-0.7c0.1,0,0.4,0.1,0.5,0.1C92.8,88.2,93.1,88.4,93.2,88.5z M90.7,81.8c0.1,0,0.2,0,0.2,0
			c2.4,1.3,4.6,2.9,6.2,5c-1-0.2-1.8-0.5-2.8-0.7C93.2,84.6,92,83.1,90.7,81.8z M69.9,53.2c-1.3-1.2-2.6-2.4-4.1-3.5
			c0.7-2.2,1.3-4.3,1.9-6.4c1.1-1.7,2.3-3.2,3.4-4.9c0.1-0.1,0.2-0.2,0.2-0.4c-1,3.2-1.9,6.6-3,9.9c-0.4,1.3,1.6,2.2,2.3,1
			c0.7-1.1,1.3-2.3,2-3.4C71.9,47.9,71,50.6,69.9,53.2z"/>
	</g>
</g>
</svg>
