<?xml version="1.0" encoding="utf-8"?>
<!-- Generator: Adobe Illustrator 26.0.1, SVG Export Plug-In . SVG Version: 6.00 Build 0)  -->
<svg version="1.1" id="Слой_1" xmlns="http://www.w3.org/2000/svg" xmlns:xlink="http://www.w3.org/1999/xlink" x="0px" y="0px"
	 viewBox="0 0 100 100.4" style="enable-background:new 0 0 100 100.4;" xml:space="preserve">
<style type="text/css">
	.st0{fill:#FFC803;}
</style>
<g>
	<g>
		<path d="M82.8,4.9c0.5-1.2-1.1-2.2-1.8-1c-3.9,6.4-7.8,12.8-11.7,19.3c0.2-0.8,0.4-1.6,0.6-2.3c0.2-0.7,0.4-1.4,0.6-2.1
			c0.3-1.2-1.2-1.8-1.9-0.8c-1.1,1.6-2.2,3.2-3.3,4.8c0,0-0.1,0-0.1-0.1c0.1-0.2,0.2-0.4,0.3-0.7c0.7-1.3,1.5-2.7,2.1-4
			c1.3-2.7,2.5-5.5,3-8.5c0.1-0.8,0.2-1.5,0.2-2.3c0-0.9-0.8-1.2-1.5-1c0-0.1-0.1-0.2-0.1-0.3c-0.2-0.6-0.8-1-1.4-0.8
			c-0.1,0-0.1,0-0.2,0.1c0-0.1,0.1-0.2,0.1-0.3c0.3-0.7,0.5-1.4,0.8-2.1c0.2-0.5-0.2-1-0.6-1.2c-0.5-0.2-1,0-1.3,0.4
			c-0.5,0.9-1.1,1.7-1.6,2.6C65,4.2,64.8,4.1,64.6,4c-0.6-0.2-1.1,0-1.4,0.5c-0.4,0.6-0.9,1.2-1.3,1.8c0,0-0.1,0-0.1-0.1
			c-0.1,0-0.2-0.1-0.3-0.1c0.1-0.2,0.1-0.4,0.2-0.6c0.2-0.8,0.5-1.5,0.7-2.3c0.2-0.5-0.1-1.1-0.7-1.3c-0.6-0.2-1.1,0-1.4,0.5
			c-1.3,1.8-2.6,3.6-3.7,5.4c0-0.4,0-0.8,0-1.2c0-1.3-1.9-1.5-2.2-0.3c-1,3.5-2.1,6.9-3.1,10.4c-0.9,1.6-1.7,3.2-2.6,4.9
			c-1.2,2.1-2.3,4.2-3.5,6.3c-1.3-1.1-2.7-2.2-4.2-3.2c-0.6-0.4-1.2-0.8-1.8-1.2c-1.8-2-3.8-3.9-5.8-5.7c-2.1-1.9-4.3-3.6-6.6-5.3
			c-0.9-0.6-2,0.6-1.4,1.4c0.8,1.3,1.7,2.6,2.6,3.8c-0.1-0.1-0.3-0.1-0.4-0.2c-0.8-0.6-1.6-1.2-2.4-1.8c-4.9-3.6-10-6.9-15.3-9.9
			C9.1,5.7,8.5,5.4,7.8,5C6.7,4.4,5.6,5.8,6.4,6.8c2.6,2.9,5.3,5.7,8,8.6c-0.4,0.2-0.7,0.5-1,1c-0.4,0.6-0.5,1.2-0.4,1.8
			c-1-0.8-1.9-1.6-2.9-2.4c-0.5-0.4-1.1-0.5-1.6,0c-0.4,0.4-0.5,1.2,0,1.6c1.8,1.5,3.6,3,5.4,4.5c-0.2,0-0.3,0-0.5,0.1
			c-0.5-0.1-1-0.2-1.5-0.4l0,0c-0.2-0.2-0.5-0.2-0.7-0.2c-0.3-0.1-0.6-0.2-1-0.2c-1.1-0.6-2.1-1.1-3.2-1.7c-0.9-0.5-1.8,0.5-1.5,1.3
			c-1-0.4-1.9-0.8-2.9-1.2c-0.4-0.2-1,0.1-1.2,0.4c-0.3,0.4-0.3,0.8-0.1,1.3c2.5,4.5,6.8,7.6,10.9,10.5c1.1,0.8,2.3,1.6,3.5,2.4
			c4.7,3.6,9.4,7.2,14.2,10.6c1.1,0.8,2.2,1.5,3.3,2.3c-0.1,0-0.2-0.1-0.3-0.1c-4.6-2.3-9.3-4.7-13.9-7c-3.6-1.8-7.1-3.6-10.7-5.4
			c-1.2-0.6-2.1,1.1-1,1.8c6.8,4.6,13.9,9,21.1,13c1.4,0.8,2.8,1.5,4.2,2.3c-0.1,0.2-0.3,0.5-0.4,0.7c-0.5-0.2-1.1-0.3-1.6-0.5
			c-2.9-0.8-5.8-1.3-8.8-1.4c-1.2-0.1-1.4,1.8-0.3,2c3.2,0.6,6.4,1.2,9.5,1.9c-2.2,4-4.4,8-6.5,12c-2.8,5.4-5.6,10.8-8.2,16.3
			c-0.3,0.7-0.7,1.4-1,2c-0.2,0.5-0.2,1.1,0.3,1.5c0.5,0.3,1.1,0.3,1.5-0.1c0.1-0.1,0.2-0.2,0.4-0.4c-0.2,0.4-0.3,0.8-0.5,1.2
			c-0.3,0.7-0.6,1.4-0.9,2.2c-0.2,0.6-0.2,1.2,0.4,1.5c0.1,0.1,0.3,0.1,0.5,0.1c0,0.1-0.1,0.1-0.1,0.2c-0.6,1.3,1.1,2.3,2,1.1
			c3.2-4.6,6.5-9.2,9.6-13.8c-0.9,1.7-1.8,3.3-2.7,4.9c-0.3,0.5-0.1,1,0.2,1.3c-0.1,0.2-0.2,0.4-0.3,0.6c-0.2,0.6-0.2,1.2,0.4,1.5
			c0.5,0.3,1.3,0.1,1.5-0.4c0.1-0.2,0.2-0.3,0.3-0.5c0,0.1-0.1,0.2-0.1,0.3c-0.2,0.7-0.5,1.4-0.7,2.2c-0.3,0.9,1.1,1.8,1.7,1
			c0.9-1.1,1.8-2.3,2.6-3.5c-0.5,1.6-1.1,3.3-1.6,4.9c-0.2,0.7,0.2,1.2,0.8,1.3c-0.7,2-1.4,4.1-2.1,6.1c-0.2,0.7,0.4,1.4,1.1,1.3
			c0.1,0.3,0.3,0.6,0.6,0.7c0.5,0.2,1,0,1.3-0.4c3.6-4.7,6.9-9.6,10.1-14.6c3.2-5,6.2-10.1,8.9-15.3c1.1-2,2.1-4,3.1-5.9
			c0.3,0.2,0.6,0.3,0.9,0.5c2.6,3.3,5.1,6.6,7.7,9.9c1.2,1.5,2.3,3,3.5,4.5c0.3,0.4,0.8,0.6,1.3,0.3c0.5-0.3,0.6-0.8,0.3-1.3
			c-0.6-1.1-1.2-2.1-1.7-3.2c1,1,2.1,2,3.1,3c1.6,1.5,3.1,3,4.7,4.5c0.8,0.7,2-0.2,1.5-1.1c-0.8-1.3-1.6-2.6-2.4-3.8
			c1,0.9,2,1.7,3,2.6c0.5,0.4,1.2,0.4,1.6,0c0.4-0.4,0.4-1.2,0-1.6c-1.4-1.3-2.8-2.6-4.2-3.8c2,1.7,3.9,3.3,5.9,5
			c0.2,0.2,0.6,0.3,0.9,0.3c0.3,0.3,0.7,0.6,1,0.9c0.5,0.4,1.2,0.4,1.6,0c0.1-0.1,0.2-0.3,0.3-0.5c1,0.7,1.9,1.4,2.9,2
			c0.5,0.3,1.2,0.1,1.5-0.3c0.3-0.5,0.3-1.1-0.1-1.5c-1.4-1.6-2.8-3.2-4.2-4.8c0.6,0.2,1.2,0.3,1.8,0.4c0.9,0.2,1.6-0.7,1.2-1.5
			c-0.2-0.5-0.5-1-0.8-1.4c1.3,0.9,2.6,1.7,3.9,2.6c0.4,0.3,0.9,0.2,1.2-0.1c2.1,1.4,4.4,2.7,6.7,3.7c0.7,0.3,1.4,0.6,2,0.8
			c0.5,0.2,1.1-0.2,1.3-0.7c0.2-0.5,0-1.1-0.5-1.4c-4.9-3-9.7-6-14.5-9.2c-6.3-6.2-12.8-12.2-19.4-18.1c-1.4-1.3-2.9-2.6-4.4-3.9
			c1.2-3.1,2.4-6.3,3.6-9.4c0.8-2.2,1.5-4.5,2.2-6.7c2.1-3.5,4.2-6.9,6.3-10.4c-2.2,4.8-4.4,9.6-6.6,14.3c-1.3,2.9-2.7,5.8-4,8.7
			c-0.2,0.5-0.1,1.1,0.4,1.4c0.5,0.3,1.2,0.1,1.4-0.4c3.4-7.2,6.8-14.4,10.3-21.5c1-2,1.9-4,2.9-6c0.1-0.3,0.2-0.7,0-0.9
			c0.4-0.8,0.8-1.7,1.2-2.5C80.1,10.7,81.5,7.8,82.8,4.9z M63.5,32.7c-0.2,0.4-0.5,0.8-0.7,1.2c0.7-2.2,1.3-4.4,2-6.6
			c0.7-1,1.4-2.1,2.1-3.1c-0.6,2-1.2,3.9-1.8,5.9C64.6,31,64,31.8,63.5,32.7z M28,29.7c1,1,1.9,2,2.8,2.9c-1.6-1.3-3.2-2.6-4.8-3.9
			c0.4,0.2,0.7,0.3,1.1,0.5C27.5,29.4,27.7,29.6,28,29.7z M37.9,25.2c1.1,1.2,2.2,2.5,3.3,3.7c-0.5-0.5-1.1-1-1.6-1.4
			c-0.9-0.7-1.7-1.5-2.6-2.2c-0.5-0.5-1-1-1.4-1.5c0.4,0.2,0.7,0.4,1.1,0.6C37.1,24.7,37.5,24.9,37.9,25.2z M17.3,29.4
			c-0.5-0.4-0.9-0.8-1.4-1.3c0.1,0.1,0.2,0.1,0.3,0.2c2,1.7,3.9,3.4,5.9,5.2c-0.2-0.1-0.4-0.2-0.5-0.2C20.2,32,18.7,30.7,17.3,29.4z
			 M50.5,37.8C50.5,37.8,50.4,37.8,50.5,37.8c0-0.3,0.1-0.6,0.2-0.8c0.2-0.2,0.4-0.4,0.6-0.7C51,36.8,50.7,37.3,50.5,37.8z
			 M52.2,34.5C52.2,34.6,52.2,34.6,52.2,34.5c-0.3,0.6-0.6,1.2-0.9,1.7c0-0.1,0.1-0.2,0.1-0.3c0.1-0.5,0.1-0.9,0-1.3
			c0.1-0.2,0.1-0.4,0.2-0.5c1.5-3.3,3.1-6.7,4.6-10c0.1-0.2,0.2-0.4,0.3-0.6C55.4,27.2,53.8,30.9,52.2,34.5z M37.2,59.3
			c-0.2,0.6-0.5,1.1-0.7,1.7c-0.3,0.3-0.5,0.6-0.8,0.9C36.2,61,36.7,60.1,37.2,59.3z M54.9,46.7c0-0.1,0.1-0.3,0.1-0.4
			c1,0.9,2.1,1.8,3.1,2.7c-0.1,0.2-0.2,0.4-0.3,0.6C56.9,48.7,55.9,47.7,54.9,46.7z M42.8,58.8c0,0,0.1,0,0.1,0
			c-0.6,1.5-1.2,3-1.8,4.6c0.4-1.4,0.9-2.8,1.3-4.1C42.5,59.1,42.7,58.9,42.8,58.8z M59.6,51.1c0.1-0.1,0.1-0.2,0.2-0.4
			c0.5,0.5,1,1.1,1.5,1.6C60.7,51.9,60.1,51.5,59.6,51.1z M56.6,13.7c-0.2,0.3-0.4,0.6-0.6,0.9c0-0.1,0-0.2,0-0.3
			c0.2-0.3,0.4-0.6,0.7-0.9C56.7,13.5,56.7,13.6,56.6,13.7z M53.2,18.4c0,0.1,0,0.3-0.1,0.4c-0.1,0.2-0.2,0.3-0.3,0.5
			c0.1-0.2,0.1-0.4,0.2-0.6C53.1,18.6,53.1,18.5,53.2,18.4z M37,35.5c1,0.9,2,1.7,3,2.6c0,0,0,0.1-0.1,0.1c-0.3-0.2-0.7-0.4-1.1-0.7
			c-0.3-0.3-0.6-0.6-0.8-0.9c-0.6-0.6-1.2-1.2-1.8-1.8C36.5,35.1,36.8,35.3,37,35.5z M63.3,60.9c0.4-0.3,0.6-0.8,0.4-1.2
			c1.1,0.9,2.2,1.7,3.4,2.6c0.3,0.4,0.7,0.7,1,1.1c-1.2-0.4-2.4-0.9-3.6-1.3C64.2,61.6,63.7,61.3,63.3,60.9z M62.2,23.3
			c-0.3,0.5-0.6,1.1-0.9,1.6c0.3-1.3,0.7-2.7,1-4c0.9-2.7,1.8-5.4,2.7-8c0.8-0.8,1.6-1.6,2.5-2.3c-0.1,1-0.4,2-0.7,2.9
			c-0.8,2.4-1.9,4.7-2.9,7c-0.1,0.2-0.1,0.3-0.2,0.5C63.1,21.7,62.6,22.5,62.2,23.3z M67.4,7.6c-0.4,0.3-0.8,0.6-1.1,1
			c0.1-0.2,0.2-0.4,0.3-0.6C66.9,7.8,67.1,7.7,67.4,7.6C67.4,7.5,67.4,7.6,67.4,7.6z M23.4,18.5c0.1,0.2,0.1,0.4,0.3,0.5
			c0.6,0.5,1.2,1,1.7,1.5c-0.9-0.7-1.8-1.5-2.7-2.2C22.9,18.4,23.2,18.4,23.4,18.5z M14.8,29.9c-0.8-0.4-1.7-0.8-2.5-1.2
			c-0.2-0.1-0.3-0.1-0.5-0.1c-2.2-1.6-4.4-3.3-6.2-5.4c1.4,0.6,2.7,1.2,4.1,1.8C11.4,26.8,13.1,28.4,14.8,29.9z M44.9,67.3
			c0.1-0.3,0.2-0.6,0.3-0.9c0.5-1,1.1-2,1.7-3.1c-1,2.8-2.1,5.5-3.2,8.2c-0.8,2.1-1.7,4.2-2.6,6.2C42.4,74.3,43.7,70.8,44.9,67.3z
			 M73.3,70.6c-1.6-1.7-3.3-3.4-5-5c1,0.4,2.1,0.8,3.1,1.2c1.5,1.6,3,3.3,4.5,4.9c-0.8-0.3-1.6-0.5-2.4-0.8
			C73.4,70.7,73.4,70.7,73.3,70.6z M31.3,18.8c0.4,0.3,0.7,0.6,1.1,1c-0.2-0.1-0.4-0.2-0.5-0.2C31.7,19.3,31.5,19.1,31.3,18.8z
			 M18.7,15.1c-0.4-0.3-0.8-0.6-1.2-0.9c-0.4-0.3-0.9-0.4-1.3-0.2c-1.1-1.1-2.1-2.3-3.2-3.4c2.6,1.6,5.2,3.2,7.7,5
			C20.1,15.4,19.4,15.3,18.7,15.1z M20.4,21.7c1.2,1.3,2.5,2.6,3.7,3.9c-1.2-0.5-2.4-1-3.6-1.4c-0.1-0.1-0.3-0.2-0.4-0.4
			c-1.2-1.2-2.4-2.5-3.5-3.8c-0.5-0.6-1.3-1.3-1.4-2.1c-0.1-0.6,0.3-0.8,0.8-0.9C17.4,18.6,18.9,20.2,20.4,21.7z M30.9,83.1
			c0.9-2.7,1.8-5.4,2.8-8.1c1.1-2,2.1-4,3.2-6c-0.2,0.7-0.4,1.3-0.6,2c-0.9,2.7-1.8,5.5-2.6,8.2C32.7,80.6,31.8,81.9,30.9,83.1z
			 M49.7,67.3c-2.4,4.5-4.9,9-7.5,13.3c2.7-6.2,5.2-12.4,7.6-18.7c0.4,0.2,0.8,0.5,1.2,0.7c0.3,0.2,0.6,0.4,0.9,0.5
			C51.1,64.5,50.4,65.9,49.7,67.3z M79,75.1c-0.3-0.2-0.5-0.4-0.8-0.6c0.1,0,0.3,0.1,0.4,0.1C78.7,74.8,78.8,75,79,75.1z M76.9,69.4
			c0.1,0,0.2,0,0.2,0c2,1.1,3.8,2.4,5.2,4.2c-0.8-0.2-1.5-0.4-2.3-0.6C79,71.8,78,70.6,76.9,69.4z M59.6,45.7c-1.1-1-2.2-2-3.4-2.9
			c0.6-1.8,1.1-3.6,1.6-5.3c0.9-1.4,1.9-2.7,2.8-4.1c0.1-0.1,0.2-0.2,0.2-0.3c-0.8,2.7-1.6,5.5-2.5,8.2c-0.3,1.1,1.3,1.8,1.9,0.8
			c0.6-0.9,1.1-1.9,1.7-2.8C61.3,41.3,60.4,43.5,59.6,45.7z"/>
	</g>
	<g>
		<path class="st0" d="M81.6,3.6c0.5-1.2-1.1-2.2-1.8-1C75.9,9,72,15.4,68.1,21.8c0.2-0.8,0.4-1.6,0.6-2.3c0.2-0.7,0.4-1.4,0.6-2.1
			c0.3-1.2-1.2-1.8-1.9-0.8c-1.1,1.6-2.2,3.2-3.3,4.8c0,0-0.1,0-0.1-0.1c0.1-0.2,0.2-0.4,0.3-0.7c0.7-1.3,1.5-2.7,2.1-4
			c1.3-2.7,2.5-5.5,3-8.5c0.1-0.8,0.2-1.5,0.2-2.3c0-0.9-0.8-1.2-1.5-1c0-0.1-0.1-0.2-0.1-0.3c-0.2-0.6-0.8-1-1.4-0.8
			c-0.1,0-0.1,0-0.2,0.1c0-0.1,0.1-0.2,0.1-0.3c0.3-0.7,0.5-1.4,0.8-2.1c0.2-0.5-0.2-1-0.6-1.2c-0.5-0.2-1,0-1.3,0.4
			c-0.5,0.9-1.1,1.7-1.6,2.6c-0.1-0.2-0.3-0.3-0.5-0.4c-0.6-0.2-1.1,0-1.4,0.5c-0.4,0.6-0.9,1.2-1.3,1.8c0,0-0.1,0-0.1-0.1
			c-0.1,0-0.2-0.1-0.3-0.1c0.1-0.2,0.1-0.4,0.2-0.6C60.6,3.6,60.8,2.8,61,2c0.2-0.5-0.1-1.1-0.7-1.3c-0.6-0.2-1.1,0-1.4,0.5
			c-1.3,1.8-2.6,3.6-3.7,5.4c0-0.4,0-0.8,0-1.2c0-1.3-1.9-1.5-2.2-0.3c-1,3.5-2.1,6.9-3.1,10.4c-0.9,1.6-1.7,3.2-2.6,4.9
			c-1.2,2.1-2.3,4.2-3.5,6.3c-1.3-1.1-2.7-2.2-4.2-3.2c-0.6-0.4-1.2-0.8-1.8-1.2c-1.8-2-3.8-3.9-5.8-5.7c-2.1-1.9-4.3-3.6-6.6-5.3
			c-0.9-0.6-2,0.6-1.4,1.4c0.8,1.3,1.7,2.6,2.6,3.8c-0.1-0.1-0.3-0.1-0.4-0.2c-0.8-0.6-1.6-1.2-2.4-1.8c-4.9-3.6-10-6.9-15.3-9.9
			c-0.7-0.4-1.3-0.7-2-1.1C5.4,3.1,4.3,4.6,5.2,5.5c2.6,2.9,5.3,5.7,8,8.6c-0.4,0.2-0.7,0.5-1,1c-0.4,0.6-0.5,1.2-0.4,1.8
			c-1-0.8-1.9-1.6-2.9-2.4c-0.5-0.4-1.1-0.5-1.6,0c-0.4,0.4-0.5,1.2,0,1.6c1.8,1.5,3.6,3,5.4,4.5c-0.2,0-0.3,0-0.5,0.1
			c-0.5-0.1-1-0.2-1.5-0.4l0,0c-0.2-0.2-0.5-0.2-0.7-0.2c-0.3-0.1-0.6-0.2-1-0.2c-1.1-0.6-2.1-1.1-3.2-1.7c-0.9-0.5-1.8,0.5-1.5,1.3
			c-1-0.4-1.9-0.8-2.9-1.2c-0.4-0.2-1,0.1-1.2,0.4C0,19.1-0.1,19.6,0.1,20c2.5,4.5,6.8,7.6,10.9,10.5c1.1,0.8,2.3,1.6,3.5,2.4
			c4.7,3.6,9.4,7.2,14.2,10.6c1.1,0.8,2.2,1.5,3.3,2.3c-0.1,0-0.2-0.1-0.3-0.1c-4.6-2.3-9.3-4.7-13.9-7c-3.6-1.8-7.1-3.6-10.7-5.4
			c-1.2-0.6-2.1,1.1-1,1.8c6.8,4.6,13.9,9,21.1,13c1.4,0.8,2.8,1.5,4.2,2.3c-0.1,0.2-0.3,0.5-0.4,0.7c-0.5-0.2-1.1-0.3-1.6-0.5
			c-2.9-0.8-5.8-1.3-8.8-1.4c-1.2-0.1-1.4,1.8-0.3,2c3.2,0.6,6.4,1.2,9.5,1.9c-2.2,4-4.4,8-6.5,12c-2.8,5.4-5.6,10.8-8.2,16.3
			c-0.3,0.7-0.7,1.4-1,2c-0.2,0.5-0.2,1.1,0.3,1.5c0.5,0.3,1.1,0.3,1.5-0.1c0.1-0.1,0.2-0.2,0.4-0.4c-0.2,0.4-0.3,0.8-0.5,1.2
			c-0.3,0.7-0.6,1.4-0.9,2.2c-0.2,0.6-0.2,1.2,0.4,1.5c0.1,0.1,0.3,0.1,0.5,0.1c0,0.1-0.1,0.1-0.1,0.2c-0.6,1.3,1.1,2.3,2,1.1
			c3.2-4.6,6.5-9.2,9.6-13.8c-0.9,1.7-1.8,3.3-2.7,4.9c-0.3,0.5-0.1,1,0.2,1.3c-0.1,0.2-0.2,0.4-0.3,0.6c-0.2,0.6-0.2,1.2,0.4,1.5
			c0.5,0.3,1.3,0.1,1.5-0.4c0.1-0.2,0.2-0.3,0.3-0.5c0,0.1-0.1,0.2-0.1,0.3c-0.2,0.7-0.5,1.4-0.7,2.2c-0.3,0.9,1.1,1.8,1.7,1
			c0.9-1.1,1.8-2.3,2.6-3.5c-0.5,1.6-1.1,3.3-1.6,4.9c-0.2,0.7,0.2,1.2,0.8,1.3c-0.7,2-1.4,4.1-2.1,6.1c-0.2,0.7,0.4,1.4,1.1,1.3
			c0.1,0.3,0.3,0.6,0.6,0.7c0.5,0.2,1,0,1.3-0.4c3.6-4.7,6.9-9.6,10.1-14.6c3.2-5,6.2-10.1,8.9-15.3c1.1-2,2.1-4,3.1-5.9
			c0.3,0.2,0.6,0.3,0.9,0.5c2.6,3.3,5.1,6.6,7.7,9.9c1.2,1.5,2.3,3,3.5,4.5c0.3,0.4,0.8,0.6,1.3,0.3c0.5-0.3,0.6-0.8,0.3-1.3
			c-0.6-1.1-1.2-2.1-1.7-3.2c1,1,2.1,2,3.1,3c1.6,1.5,3.1,3,4.7,4.5c0.8,0.7,2-0.2,1.5-1.1c-0.8-1.3-1.6-2.6-2.4-3.8
			c1,0.9,2,1.7,3,2.6c0.5,0.4,1.2,0.4,1.6,0c0.4-0.4,0.4-1.2,0-1.6c-1.4-1.3-2.8-2.6-4.2-3.8c2,1.7,3.9,3.3,5.9,5
			c0.2,0.2,0.6,0.3,0.9,0.3c0.3,0.3,0.7,0.6,1,0.9c0.5,0.4,1.2,0.4,1.6,0c0.1-0.1,0.2-0.3,0.3-0.5c1,0.7,1.9,1.4,2.9,2
			c0.5,0.3,1.2,0.1,1.5-0.3c0.3-0.5,0.3-1.1-0.1-1.5c-1.4-1.6-2.8-3.2-4.2-4.8c0.6,0.2,1.2,0.3,1.8,0.4c0.9,0.2,1.6-0.7,1.2-1.5
			c-0.2-0.5-0.5-1-0.8-1.4c1.3,0.9,2.6,1.7,3.9,2.6c0.4,0.3,0.9,0.2,1.2-0.1c2.1,1.4,4.4,2.7,6.7,3.7c0.7,0.3,1.4,0.6,2,0.8
			c0.5,0.2,1.1-0.2,1.3-0.7c0.2-0.5,0-1.1-0.5-1.4c-4.9-3-9.7-6-14.5-9.2c-6.3-6.2-12.8-12.2-19.4-18.1c-1.4-1.3-2.9-2.6-4.4-3.9
			c1.2-3.1,2.4-6.3,3.6-9.4c0.8-2.2,1.5-4.5,2.2-6.7c2.1-3.5,4.2-6.9,6.3-10.4c-2.2,4.8-4.4,9.6-6.6,14.3c-1.3,2.9-2.7,5.8-4,8.7
			c-0.2,0.5-0.1,1.1,0.4,1.4c0.5,0.3,1.2,0.1,1.4-0.4C66.6,36.2,70,29,73.5,21.8c1-2,1.9-4,2.9-6c0.1-0.3,0.2-0.7,0-0.9
			c0.4-0.8,0.8-1.7,1.2-2.5C78.9,9.4,80.2,6.5,81.6,3.6z M62.2,31.4c-0.2,0.4-0.5,0.8-0.7,1.2c0.7-2.2,1.3-4.4,2-6.6
			c0.7-1,1.4-2.1,2.1-3.1c-0.6,2-1.2,3.9-1.8,5.9C63.3,29.7,62.8,30.6,62.2,31.4z M26.8,28.5c1,1,1.9,2,2.8,2.9
			c-1.6-1.3-3.2-2.6-4.8-3.9c0.4,0.2,0.7,0.3,1.1,0.5C26.2,28.1,26.5,28.3,26.8,28.5z M36.6,23.9c1.1,1.2,2.2,2.5,3.3,3.7
			c-0.5-0.5-1.1-1-1.6-1.4c-0.9-0.7-1.7-1.5-2.6-2.2c-0.5-0.5-1-1-1.4-1.5c0.4,0.2,0.7,0.4,1.1,0.6C35.8,23.4,36.2,23.7,36.6,23.9z
			 M16,28.2c-0.5-0.4-0.9-0.8-1.4-1.3c0.1,0.1,0.2,0.1,0.3,0.2c2,1.7,3.9,3.4,5.9,5.2c-0.2-0.1-0.4-0.2-0.5-0.2
			C18.9,30.7,17.4,29.4,16,28.2z M49.2,36.5C49.2,36.5,49.2,36.5,49.2,36.5c0-0.3,0.1-0.6,0.2-0.8c0.2-0.2,0.4-0.4,0.6-0.7
			C49.7,35.6,49.5,36.1,49.2,36.5z M50.9,33.3C50.9,33.3,50.9,33.3,50.9,33.3c-0.3,0.6-0.6,1.2-0.9,1.7c0-0.1,0.1-0.2,0.1-0.3
			c0.1-0.5,0.1-0.9,0-1.3c0.1-0.2,0.1-0.4,0.2-0.5c1.5-3.3,3.1-6.7,4.6-10c0.1-0.2,0.2-0.4,0.3-0.6C54.1,26,52.6,29.6,50.9,33.3z
			 M36,58c-0.2,0.6-0.5,1.1-0.7,1.7c-0.3,0.3-0.5,0.6-0.8,0.9C35,59.7,35.5,58.9,36,58z M53.7,45.5c0-0.1,0.1-0.3,0.1-0.4
			c1,0.9,2.1,1.8,3.1,2.7c-0.1,0.2-0.2,0.4-0.3,0.6C55.7,47.4,54.7,46.4,53.7,45.5z M41.5,57.5c0,0,0.1,0,0.1,0
			c-0.6,1.5-1.2,3-1.8,4.6c0.4-1.4,0.9-2.8,1.3-4.1C41.3,57.8,41.4,57.7,41.5,57.5z M58.3,49.8c0.1-0.1,0.1-0.2,0.2-0.4
			c0.5,0.5,1,1.1,1.5,1.6C59.4,50.6,58.9,50.2,58.3,49.8z M55.3,12.5c-0.2,0.3-0.4,0.6-0.6,0.9c0-0.1,0-0.2,0-0.3
			c0.2-0.3,0.4-0.6,0.7-0.9C55.4,12.3,55.4,12.4,55.3,12.5z M51.9,17.1c0,0.1,0,0.3-0.1,0.4c-0.1,0.2-0.2,0.3-0.3,0.5
			c0.1-0.2,0.1-0.4,0.2-0.6C51.8,17.3,51.9,17.2,51.9,17.1z M35.7,34.2c1,0.9,2,1.7,3,2.6c0,0,0,0.1-0.1,0.1
			c-0.3-0.2-0.7-0.4-1.1-0.7c-0.3-0.3-0.6-0.6-0.8-0.9c-0.6-0.6-1.2-1.2-1.8-1.8C35.2,33.8,35.5,34,35.7,34.2z M62,59.6
			c0.4-0.3,0.6-0.8,0.4-1.2c1.1,0.9,2.2,1.7,3.4,2.6c0.3,0.4,0.7,0.7,1,1.1c-1.2-0.4-2.4-0.9-3.6-1.3C62.9,60.4,62.5,60,62,59.6z
			 M60.9,22c-0.3,0.5-0.6,1.1-0.9,1.6c0.3-1.3,0.7-2.7,1-4c0.9-2.7,1.8-5.4,2.7-8c0.8-0.8,1.6-1.6,2.5-2.3c-0.1,1-0.4,2-0.7,2.9
			c-0.8,2.4-1.9,4.7-2.9,7c-0.1,0.2-0.1,0.3-0.2,0.5C61.8,20.5,61.4,21.3,60.9,22z M66.2,6.3c-0.4,0.3-0.8,0.6-1.1,1
			c0.1-0.2,0.2-0.4,0.3-0.6C65.6,6.5,65.9,6.4,66.2,6.3C66.2,6.3,66.2,6.3,66.2,6.3z M22.1,17.2c0.1,0.2,0.1,0.4,0.3,0.5
			c0.6,0.5,1.2,1,1.7,1.5c-0.9-0.7-1.8-1.5-2.7-2.2C21.7,17.1,21.9,17.2,22.1,17.2z M13.5,28.7c-0.8-0.4-1.7-0.8-2.5-1.2
			c-0.2-0.1-0.3-0.1-0.5-0.1C8.3,25.8,6.2,24,4.4,22c1.4,0.6,2.7,1.2,4.1,1.8C10.1,25.5,11.8,27.1,13.5,28.7z M43.7,66
			c0.1-0.3,0.2-0.6,0.3-0.9c0.5-1,1.1-2,1.7-3.1c-1,2.8-2.1,5.5-3.2,8.2c-0.8,2.1-1.7,4.2-2.6,6.2C41.1,73,42.4,69.5,43.7,66z
			 M72,69.3c-1.6-1.7-3.3-3.4-5-5c1,0.4,2.1,0.8,3.1,1.2c1.5,1.6,3,3.3,4.5,4.9c-0.8-0.3-1.6-0.5-2.4-0.8
			C72.2,69.5,72.1,69.4,72,69.3z M30,17.6c0.4,0.3,0.7,0.6,1.1,1c-0.2-0.1-0.4-0.2-0.5-0.2C30.4,18,30.2,17.8,30,17.6z M17.5,13.9
			c-0.4-0.3-0.8-0.6-1.2-0.9c-0.4-0.3-0.9-0.4-1.3-0.2c-1.1-1.1-2.1-2.3-3.2-3.4c2.6,1.6,5.2,3.2,7.7,5C18.8,14.2,18.1,14,17.5,13.9
			z M19.1,20.5c1.2,1.3,2.5,2.6,3.7,3.9c-1.2-0.5-2.4-1-3.6-1.4c-0.1-0.1-0.3-0.2-0.4-0.4c-1.2-1.2-2.4-2.5-3.5-3.8
			c-0.5-0.6-1.3-1.3-1.4-2.1c-0.1-0.6,0.3-0.8,0.8-0.9C16.1,17.3,17.6,18.9,19.1,20.5z M29.6,81.9c0.9-2.7,1.8-5.4,2.8-8.1
			c1.1-2,2.1-4,3.2-6c-0.2,0.7-0.4,1.3-0.6,2c-0.9,2.7-1.8,5.5-2.6,8.2C31.5,79.3,30.6,80.6,29.6,81.9z M48.4,66
			c-2.4,4.5-4.9,9-7.5,13.3c2.7-6.2,5.2-12.4,7.6-18.7c0.4,0.2,0.8,0.5,1.2,0.7c0.3,0.2,0.6,0.4,0.9,0.5
			C49.8,63.2,49.1,64.6,48.4,66z M77.7,73.8c-0.3-0.2-0.5-0.4-0.8-0.6c0.1,0,0.3,0.1,0.4,0.1C77.4,73.5,77.6,73.7,77.7,73.8z
			 M75.6,68.2c0.1,0,0.2,0,0.2,0c2,1.1,3.8,2.4,5.2,4.2c-0.8-0.2-1.5-0.4-2.3-0.6C77.7,70.5,76.7,69.3,75.6,68.2z M58.3,44.4
			c-1.1-1-2.2-2-3.4-2.9c0.6-1.8,1.1-3.6,1.6-5.3c0.9-1.4,1.9-2.7,2.8-4.1c0.1-0.1,0.2-0.2,0.2-0.3c-0.8,2.7-1.6,5.5-2.5,8.2
			c-0.3,1.1,1.3,1.8,1.9,0.8c0.6-0.9,1.1-1.9,1.7-2.8C60,40,59.2,42.2,58.3,44.4z"/>
	</g>
</g>
</svg>
