<?xml version="1.0" encoding="utf-8"?>
<!-- Generator: Adobe Illustrator 26.0.1, SVG Export Plug-In . SVG Version: 6.00 Build 0)  -->
<svg version="1.1" id="Слой_1" xmlns="http://www.w3.org/2000/svg" xmlns:xlink="http://www.w3.org/1999/xlink" x="0px" y="0px"
	 viewBox="0 0 1000 1000" style="enable-background:new 0 0 1000 1000;" xml:space="preserve">
<path d="M823.6,38.1c5.5-11.9-10.9-22.1-18-10.4c-39.1,64.5-78.3,129.1-117.6,193.8c2.2-7.8,4.4-15.7,6.4-23.5
	c1.9-7.1,3.8-14.1,5.6-21.2c3-11.8-12.5-17.7-19-8c-10.9,16.2-21.7,32.4-32.7,48.7c-0.5-0.3-0.8-0.4-1.3-0.7
	c1.1-2.1,2.1-4.4,3.1-6.7c7.5-13.4,14.7-26.9,21.5-40.6c13.4-27,25.1-55.4,29.8-85.5c1.2-7.8,2-15.5,2.4-23.5
	c0.4-8.9-8.2-12.6-15.3-10.4c-0.3-1.1-0.7-2.1-1-3.1c-2.1-5.8-7.6-9.8-14-8.1c-0.7,0.2-1.3,0.4-2,0.6c0.4-1.1,0.9-2.1,1.3-3.2
	c2.8-7.1,5.5-14.2,8.1-21.2c1.9-4.8-1.7-10.5-6-12.2c-4.9-2-10.1-0.2-13,4.4c-5.5,8.6-10.8,17.4-16.2,26.2c-1.2-1.8-3-3.2-5-4
	c-5.6-2.3-10.8,0-14.2,4.7c-4.5,6.2-9.1,12.4-13.6,18.6c-0.5-0.3-0.8-0.5-1.4-0.6c-0.8-0.4-1.8-0.5-2.6-0.7c0.5-1.9,1.2-3.7,1.7-5.6
	c2.3-7.8,4.5-15.5,6.7-23.4c1.6-5.4-1.4-11.3-6.7-13.5c-5.6-2.3-10.7,0.1-14.2,4.7c-13.2,17.7-25.7,35.8-37.7,54.2
	c0.1-3.9,0.3-7.8,0.3-11.9c0.3-13.1-18.8-15.3-22.4-3.1c-10.3,34.8-20.7,69.5-30.9,104.4c-8.9,16.2-17.5,32.5-26,48.9
	c-11.9,21.1-23.5,42.3-34.7,63.8c-13.5-11.1-27.6-21.7-42.2-31.7c-5.9-4.1-11.9-8.1-18-12c-18.5-19.9-38-38.8-58.3-56.8
	c-21.3-18.9-43.7-36.5-66.7-53.2c-8.6-6.1-19.6,5.9-14.2,14.2c8.4,13.1,17.4,25.9,26.6,38.6c-1.4-0.6-2.6-1-4.1-1.6
	c-8.1-6-16.3-12.1-24.4-18c-49.4-35.9-100.9-69.3-154.2-99c-6.6-3.8-13.3-7.4-20-11c-11.5-6.2-22.4,8.4-13.7,18
	c26.5,28.8,53.1,57.6,79.9,86.2c-3.8,2.2-7.2,5.4-9.8,9.7c-3.8,6.1-4.8,12.3-3.8,18.4c-9.8-7.9-19.5-15.9-29.3-23.8
	c-4.8-3.8-11.5-4.6-16.2,0c-4,4.1-4.7,12.2,0,16.2c18.1,14.9,36.3,30,54.2,45c-1.7-0.1-3.4,0.2-5.1,0.9c-4.9-1.4-9.8-2.5-14.6-3.8
	l-0.1-0.1c-2.3-1.5-4.7-2-7-1.6c-3.3-0.8-6.5-1.5-9.7-2.3c-10.7-5.7-21.3-11.4-32.2-16.9c-9.2-4.7-18.3,4.8-14.7,13.1
	c-9.7-4.2-19.5-8.3-29.3-12.2c-4.1-1.7-9.6,0.9-12,4.1c-2.8,3.8-3.1,8.5-0.9,12.6c25.3,45.2,67.9,76.7,109.7,105.5
	c11.6,8,23.2,16,34.9,23.9C197,369,244.6,404.6,293,439.3c10.9,7.8,21.8,15.6,32.7,23.3c-1-0.4-2-0.9-3-0.9
	c-46.6-23.5-93.4-47-140-70.6C146.9,373,110.9,354.9,75,336.8c-12.1-6.1-21.5,10.6-10.4,18c68.7,46.6,139.4,90.3,211.8,130.9
	c14,7.8,28,15.5,42,23.1c-1.4,2.4-2.7,4.9-4.1,7.2c-5.5-1.7-10.9-3.4-16.6-4.9c-28.7-8-58.2-13.3-87.9-14.5
	c-11.6-0.6-14.6,18.2-2.8,20.4c32.1,5.9,63.9,12.5,95.8,19.5c-22.5,39.9-44.4,80.2-65.7,120.7c-28.6,54.1-56.1,108.8-82.7,164
	c-3.3,6.8-6.6,13.6-9.8,20.6c-2.4,5.1-1.8,11.2,3,14.7c4.6,3.3,10.9,3.1,15-0.9c1.3-1.3,2.5-2.5,3.8-3.8c-1.6,3.8-3.4,7.7-5,11.6
	c-3.1,7.3-6.1,14.5-9.4,22c-2.4,5.7-1.6,12.3,4.1,15.5c1.5,0.8,3,1.3,4.6,1.4c-0.3,0.7-0.7,1.3-1,2c-6.5,13.3,11.3,23.3,19.6,11.3
	c32.5-46,65.2-92.1,96.8-138.8c-8.7,16.7-17.7,33.3-26.7,49.7c-2.9,5.2-1.3,10.2,1.9,13.3c-1,2.1-2,4.3-3,6.4
	c-2.5,5.6-1.5,12.3,4.1,15.5c5.2,3,12.7,1.3,15.5-4.1c0.8-1.6,1.8-3.2,2.6-4.9c-0.3,1-0.6,1.9-1,2.9c-2.3,7.3-4.7,14.6-6.8,22
	c-2.9,9.5,10.9,18.5,17.4,10.1c8.9-11.5,17.6-23.2,26.2-34.9c-5.3,16.4-10.6,32.8-15.9,49.2c-2.3,7.1,2.2,12.1,7.8,13.6
	c-7,20.4-14,40.8-20.9,61.2c-2.2,6.5,4.4,13.8,10.9,13.4c0.8,3.1,3.1,5.7,6.2,6.9c5.3,2.1,9.8-0.1,13-4.4
	c35.7-47.5,69.5-96.2,101.4-146.2c31.9-50,61.8-101.2,89.8-153.6c10.6-19.8,20.9-39.8,30.9-59.8c3,1.6,5.8,3.3,8.8,4.8
	c25.8,33.3,51.6,66.5,77.5,99.8c11.7,15.1,23.5,30.3,35.2,45.2c3.1,4.1,8.1,6.1,12.9,3.3c4.6-2.7,5.9-8.3,3.3-12.9
	c-5.7-10.6-11.6-21.4-17.3-32.1c10.5,10.2,21.1,20.3,31.6,30.4c15.6,15.1,31.3,30,46.9,45.2c7.6,7.3,20.5-2.2,14.7-11.5
	c-7.9-12.8-16.1-25.7-24.3-38.4c10,8.8,19.9,17.5,30,26.3c4.6,4.1,11.6,4.5,16.2,0c4.2-4.3,4.5-12,0-16.2
	c-14.2-12.8-28.5-25.6-42.5-38.5c19.6,16.7,39.2,33.5,58.9,50.1c2.4,2.1,5.7,3.3,8.8,3.2c3.5,3,6.9,5.9,10.4,8.9
	c4.6,4.1,11.6,4.5,16.2,0c1.4-1.4,2.3-3.2,2.8-5.1c9.8,6.8,19.5,13.7,29.4,20.5c4.6,3.2,11.6,1.2,14.7-3c3.5-4.8,2.8-10.6-0.9-15
	c-13.8-16.3-27.8-32.4-41.8-48.4c6,1.6,12.1,3.1,18,4.5c9.3,2.2,15.7-7.3,11.8-15.3c-2.4-4.9-5.1-9.6-8.1-14.1
	c13.1,8.7,26.1,17.6,39.2,26.3c4.5,3,8.9,2,12.3-0.7c21.4,14.3,43.7,27.2,67.4,37.6c6.7,3,13.6,5.8,20.5,8.5
	c5.2,2,11.5-1.8,13.5-6.7c2-5.4,0.2-11.3-4.7-14.2c-49.2-29.8-97.9-60.6-145.9-92.3C780.9,621.5,716,560.6,650,501.1
	c-14.5-13.1-29.2-26.1-43.7-39.1c12.5-31.3,24.5-62.9,35.7-94.7c7.8-22.4,15.4-45,22.6-67.7c21.2-34.8,42.2-69.7,63.3-104.4
	c-22,48.1-44.3,96-66.3,144c-13.5,29.3-27,58.5-40.6,87.9c-2.4,5.1-1.4,11.2,3.8,14.2c4.6,2.7,11.8,1.2,14.2-3.8
	c34.3-72.1,68.7-144.3,103-216.4c9.7-20.2,19.2-40.6,29-60.8c1.4-3,1.6-6.6,0.3-9.5c3.9-8.5,7.8-16.9,11.7-25.5
	C796.5,96.6,810,67.2,823.6,38.1z M629.4,317.9c-2.4,4-4.9,8.1-7.3,12.2c6.7-22.2,13.3-44.3,20-66.5c7.1-10.5,14.2-20.9,21.4-31.4
	c-5.6,19.9-11.7,39.7-17.9,59.4C640,300.3,634.8,309.2,629.4,317.9z M273,287.9c9.6,9.8,19,19.8,28.6,29.5
	c-16.1-13.2-32.3-26.2-48.5-39.4c3.6,1.7,7.1,3.4,10.7,5.2C267,284.7,269.9,286.3,273,287.9z M371.9,242.4
	c11.4,12.2,22.3,24.7,32.8,37.6c-5.3-4.9-10.8-9.6-16.2-14.4c-8.6-7.5-17.1-15.1-25.8-22.5c-4.8-5.1-9.7-10-14.4-15.1
	c3.8,2.2,7.5,4.3,11,6.5C363.6,237.3,367.7,239.9,371.9,242.4z M164.9,285c-4.6-4.3-9.4-8.5-14.2-13c1.2,0.6,2.2,1.2,3.3,1.8
	c19.8,17.4,39.7,34.6,59.4,52.1c-1.7-0.8-3.5-1.7-5.2-2.5C193.8,310.6,179.2,297.8,164.9,285z M498.6,369.1
	c-0.3-0.3-0.6-0.6-0.9-0.9c0.9-2.4,1.6-4.6,2.5-7c2.4-1.8,4.4-3.9,5.9-6.6C503.7,359.5,501.1,364.2,498.6,369.1z M515.7,336.2
	c0,0.2-0.3,0.5-0.3,0.7c-2.8,5.6-5.7,10.9-8.6,16.5c0.4-1,1-2,1.3-3.2c1.4-4.6,1.4-9,0.5-13.1c0.6-1.8,1.2-3.6,1.8-5.4
	c15.5-33.6,30.9-67.2,46.3-100.8c1.1-1.9,2.3-4,3.4-5.9C547.5,262.8,532.1,299.8,515.7,336.2z M365.3,585c-2.3,5.6-4.6,11.3-7,16.8
	c-2.6,2.9-5.4,5.8-8.1,8.6C355.4,602.1,360.3,593.5,365.3,585z M543.1,458.9c0.4-1.3,0.9-2.8,1.3-4c10.5,9.1,20.9,18.3,31.4,27.2
	c-0.9,2-1.7,3.9-2.6,6.1C563.4,478.5,553.3,468.7,543.1,458.9z M421,579.7c0.2,0.1,0.7,0.3,1,0.4c-5.9,15.3-12,30.6-17.7,46.1
	c4.5-13.8,9-27.7,13.4-41.6C418.7,583.1,419.8,581.3,421,579.7z M589.9,502.3c0.6-1.3,1-2.4,1.6-3.7c4.9,5.3,10,10.8,14.9,16.2
	C600.7,510.8,595.4,506.5,589.9,502.3z M560.1,127.1c-2.1,2.9-4.1,5.9-6,8.8c0.1-1.1,0.3-2.2,0.4-3.3c2.3-2.9,4.5-5.7,6.9-8.6
	C560.8,125.1,560.5,126.2,560.1,127.1z M525.9,173.6c-0.2,1.5-0.5,2.9-0.6,4.5c-1.1,1.5-2,3.1-3.2,4.6c0.5-1.9,1.2-3.7,1.7-5.6
	C524.4,176.1,525.1,174.9,525.9,173.6z M363.1,345.6c9.9,8.6,19.7,17.1,29.7,25.7c-0.3,0.5-0.5,0.8-0.7,1.3
	c-3.5-2.2-7.1-4.4-10.7-6.6c-2.8-2.9-5.7-5.6-8.4-8.6c-5.9-6-11.8-12-17.7-18.1C357.8,341.5,360.5,343.6,363.1,345.6z M627.4,600.8
	c4.3-2.9,5.8-8,4.2-12.5c11.2,8.6,22.5,17.3,33.8,25.9c3.5,3.6,6.9,7.3,10.4,10.8c-12-4.4-23.9-8.5-35.8-12.8
	C635.8,608.5,631.6,604.7,627.4,600.8z M616.1,223.3c-3,5.5-6.3,10.9-9.4,16.2c3.5-13.4,6.8-26.8,10-40.2
	c9.2-26.9,18.3-53.8,27.3-80.6c8.1-7.8,16.4-15.7,24.8-23.1c-1.3,10-4,19.7-7.3,29.4c-8.1,24-19,47.2-29.6,70.1
	c-0.7,1.6-1.4,3.1-2.2,4.8C625.2,207.6,620.6,215.5,616.1,223.3z M668.8,65.4c-3.8,3.3-7.6,6.5-11.3,10c0.9-2.1,1.6-4.2,2.6-6.3
	c2.9-1.5,5.8-3,8.7-4.2C668.7,64.9,668.8,65.1,668.8,65.4z M226.3,175c0.5,1.9,1.5,3.6,3,5c5.8,5.1,11.6,10.1,17.4,15.3
	c-9.1-7.5-18.2-14.9-27.4-22.3C221.6,173.6,224,174.4,226.3,175z M139.8,290.1c-8.3-3.9-16.8-8-25.2-11.9c-1.6-0.7-3.2-1.2-4.7-1.3
	c-22.4-16-44-33.3-61.9-53.8c13.8,6,27.6,12.2,41.1,18.6C105.6,258.1,122.6,274.2,139.8,290.1z M442.8,665.3
	c1.1-2.9,2.2-5.9,3.2-8.8c5.4-10.3,11-20.5,16.8-30.7c-10.5,27.8-21.3,55.4-32.5,82.8c-8.5,20.9-17.3,41.8-26.2,62.6
	C417,735.9,429.9,700.6,442.8,665.3z M727.6,698.2c-16.4-17-33.1-33.7-50.1-50.2c10.3,3.8,20.6,7.8,30.8,11.9
	c15.2,16.3,30.4,32.8,45.4,49.4c-8-2.7-16-5.3-23.9-8.1C729.3,700.1,728.6,699.1,727.6,698.2z M305.6,178.5c3.7,3.2,7.4,6.4,11,9.7
	c-1.7-0.8-3.5-1.7-5.4-2.5C309.4,183.2,307.5,180.9,305.6,178.5z M179.5,141.1c-3.9-3.1-7.8-6.1-11.7-9.3c-4-3.1-9.1-4.2-13.5-1.9
	c-10.6-11.4-21.2-22.7-31.8-34.1c26.2,15.9,51.8,32.6,77,49.9C192.9,144.2,186.2,142.6,179.5,141.1z M196.2,207.5
	c12.3,13,24.8,25.9,37,38.8c-11.9-5.1-24.2-9.8-36.5-14.2c-1.4-1.2-2.9-2.4-4.3-3.5c-12.1-12.5-23.9-25.3-35.6-38.4
	c-5.2-5.8-12.8-13-13.9-21.3c-0.7-6.2,3.3-8.4,8-9.3C166.1,175.8,181.1,191.8,196.2,207.5z M301.9,824.6c9-27.3,18.2-54.4,27.7-81.5
	c10.8-20,21.4-40.1,32.1-60.3c-2.1,6.6-4.3,13.1-6.3,19.7c-8.9,27.6-17.8,55.1-26.6,82.8C320,798.7,311,811.8,301.9,824.6z
	 M490.3,665.2c-23.7,45.5-48.9,90.1-75.6,133.8c27-62,52.3-124.8,76-188.3c3.9,2.4,8,4.9,12,7.2c3.1,1.8,6,3.5,9,5.3
	C504.6,637.2,497.5,651.3,490.3,665.2z M784.7,744c-2.7-1.9-5.3-3.7-8-5.6c1.2,0.4,2.6,0.7,3.8,1.1
	C782.1,740.9,783.3,742.4,784.7,744z M764,686.9c0.9-0.1,1.6-0.2,2.4-0.4c19.9,11.1,38.2,24.5,52.2,42c-7.7-1.9-15.3-4.1-23-6.3
	C785.2,710.3,774.7,698.5,764,686.9z M589.8,448.1c-11.2-9.9-22.4-19.7-33.7-29.6c5.6-17.9,11-35.7,16.2-53.6
	c9.5-13.8,19.1-27.5,28.6-41.4c0.8-1.1,1.5-2.3,2.4-3.4c-8.3,27.4-16.4,54.8-24.7,82.4c-3.5,11.5,13,17.9,19,8
	c5.6-9.5,11.4-18.8,17.1-28.2C606.8,404.2,598.5,426.3,589.8,448.1z"/>
</svg>
