<?xml version="1.0" encoding="utf-8"?>
<!-- Generator: Adobe Illustrator 24.0.2, SVG Export Plug-In . SVG Version: 6.00 Build 0)  -->
<svg version="1.1" id="Слой_1" xmlns="http://www.w3.org/2000/svg" xmlns:xlink="http://www.w3.org/1999/xlink" x="0px" y="0px"
	 viewBox="0 0 1000 1000" style="enable-background:new 0 0 1000 1000;" xml:space="preserve">
<path d="M939,199.2c8.5-10.2-4.9-24.4-14.9-14.9C869,237.1,813.8,289.9,758.5,342.8c4.2-7,8.4-14.2,12.4-21.3
	c3.7-6.4,7.4-12.8,11-19.3c6-10.7-7.6-20.6-16.5-12.8c-14.9,13-29.7,26-44.7,39c-0.4-0.4-0.7-0.6-1.1-1c1.6-1.8,3.2-3.8,4.8-5.7
	c10.8-11.1,21.4-22.4,31.6-34c20.2-22.9,39-47.6,51.5-75.7c3.2-7.3,6-14.6,8.5-22.3c2.7-8.6-4.7-14.4-12.2-14.2
	c0-1.1-0.1-2.2-0.2-3.3c-0.5-6.2-4.9-11.6-11.6-11.6c-0.7,0-1.4,0-2.1,0.1c0.7-1,1.4-1.8,2.1-2.8c4.6-6.2,9.1-12.4,13.5-18.6
	c3.1-4.2,1.1-10.7-2.7-13.5c-4.3-3.2-9.8-2.8-13.8,0.9c-7.6,7-15.1,14.2-22.7,21.3c-0.7-2.1-2.1-3.9-3.8-5.2
	c-4.9-3.7-10.6-2.8-15.1,0.9c-6,4.9-12.1,9.7-18.1,14.6c-0.4-0.4-0.7-0.7-1.2-1c-0.7-0.6-1.6-1-2.3-1.4c1-1.7,2.1-3.3,3.1-5
	c4.3-7,8.5-14,12.7-21.1c3-4.9,1.6-11.4-3-14.9c-4.9-3.7-10.5-2.7-15.1,0.9c-17.5,13.8-34.5,28.2-51,43.1c1.1-3.8,2.3-7.6,3.4-11.6
	c3.7-12.7-14.3-19.9-21.1-8.9c-19.2,31.3-38.4,62.5-57.5,93.9c-12.9,13.5-25.6,27.2-38.2,41c-17.2,17.5-34,35.2-50.6,53.2
	c-10.3-14.4-21.3-28.4-32.9-42c-4.7-5.5-9.5-11-14.4-16.4c-12.9-24.3-27-47.9-42.1-70.8c-15.9-24-33.1-47.1-51.2-69.4
	c-6.8-8.2-20.7,0.6-17.6,10.2c4.8,15,10.2,29.9,15.9,44.7c-1.2-0.9-2.3-1.7-3.6-2.6c-6.3-8-12.7-16.1-19.1-24
	c-38.9-48-80.4-94.1-124.7-137.1c-5.5-5.4-11.1-10.7-16.7-16c-9.6-9.1-24.1,2.3-18.1,14c18.3,35.1,36.8,70.2,55.5,105.1
	c-4.3,1.2-8.5,3.4-12.1,6.9c-5.3,5-7.9,10.8-8.5,17c-7.5-10.3-14.9-20.6-22.4-30.9c-3.7-5-10-7.5-15.8-4.2c-5,3-7.8,10.7-4.2,15.8
	c13.8,19.3,27.6,38.8,41.2,58.2c-1.6-0.5-3.4-0.7-5.2-0.5c-4.4-2.6-8.9-5-13.3-7.5l-0.1-0.1c-1.8-2.1-4.1-3.2-6.4-3.4
	c-3-1.6-5.9-3.2-8.9-4.8c-8.9-8.4-17.8-16.7-27-24.9c-7.8-7-19.1-0.1-17.8,8.9c-8.4-6.6-16.9-13.2-25.4-19.6
	c-3.6-2.7-9.6-1.6-12.8,0.9c-3.7,3-5.3,7.5-4.2,12.1c12.9,50.8,46.2,92.7,79.5,131.8c9.2,10.8,18.5,21.7,27.8,32.5
	c36.4,48,73.6,95.3,111.8,141.9c8.6,10.5,17.2,20.9,25.9,31.3c-0.9-0.7-1.7-1.4-2.7-1.7c-39.4-35.2-78.9-70.4-118.3-105.6
	c-30.3-27.1-60.7-54.2-91-81.2c-10.2-9.1-23.8,4.7-14.9,14.9c54.9,63.5,112.5,124.7,172.6,183.3c11.6,11.3,23.3,22.5,35,33.6
	c-2,2-3.9,4.1-5.9,6c-4.9-3.1-9.8-6.2-14.9-9.1c-26-15.3-53.4-28.2-82.1-37.2c-11.2-3.6-19,14-8.1,19.2
	c29.8,14.2,59.2,28.9,88.5,44.1c-32.4,33.1-64.4,66.7-95.8,100.7c-42.1,45.4-83.3,91.6-123.7,138.6c-5,5.8-10,11.6-15,17.5
	c-3.7,4.3-4.7,10.5-0.9,15.1c3.6,4.4,9.8,5.9,14.9,3c1.6-0.9,3.1-1.8,4.7-2.7c-2.6,3.3-5.3,6.6-7.9,10c-4.9,6.3-9.8,12.6-14.9,19
	c-3.8,4.9-4.8,11.6,0,16.2c1.2,1.2,2.6,2.1,4.1,2.6c-0.5,0.6-1,1.1-1.5,1.7c-9.8,11.3,4.9,25.7,16.2,16.2
	c43.8-36.4,87.8-72.9,130.9-110.2c-12.9,14-26,27.9-39.1,41.6c-4.2,4.3-3.9,9.6-1.6,13.5c-1.5,1.8-3.1,3.7-4.6,5.5
	c-3.9,4.8-4.7,11.6,0,16.2c4.3,4.3,12.1,4.6,16.2,0c1.2-1.4,2.6-2.7,3.8-4.1c-0.6,0.9-1.1,1.7-1.7,2.6c-4.2,6.5-8.4,13-12.4,19.7
	c-5.3,8.5,5.8,20.9,14.4,14.4c11.7-8.9,23.3-18,34.7-27.2c-9.5,14.6-19,29.3-28.4,43.9c-4.1,6.3-1,12.4,4.1,15.3
	c-12.2,18.1-24.4,36.2-36.4,54.3c-3.9,5.8,0.7,14.6,7.1,15.9c0,3.2,1.5,6.4,4.2,8.4c4.6,3.4,9.6,2.5,13.8-0.9
	c47.3-37.1,93.1-75.8,137.3-116.3c44.2-40.5,86.9-82.7,127.9-126.5c15.5-16.6,30.8-33.4,45.8-50.3c2.5,2.3,4.8,4.7,7.3,7
	c16.5,39.3,33,78.5,49.6,117.8c7.5,17.8,15,35.7,22.5,53.4c2,4.8,6.3,8.1,11.7,6.6c5.2-1.4,7.9-6.6,6.6-11.7
	c-2.8-11.9-5.7-23.9-8.5-35.9c7.6,12.7,15.3,25.4,22.9,38c11.3,18.8,22.7,37.5,34,56.4c5.5,9.1,20.6,3.2,17.4-7.4
	c-4.4-14.6-9-29.3-13.7-43.9c7.5,11.2,14.9,22.3,22.4,33.5c3.4,5.2,10.2,7.4,15.8,4.2c5.2-3.1,7.5-10.6,4.2-15.8
	c-10.5-16.2-21.1-32.5-31.5-48.7c14.8,21.4,29.5,43,44.4,64.4c1.8,2.7,4.7,4.7,7.8,5.4c2.6,3.8,5.2,7.6,7.8,11.4
	c3.4,5.2,10.2,7.4,15.8,4.2c1.7-1,3.1-2.5,4.1-4.2c7.8,9.2,15.5,18.5,23.4,27.7c3.7,4.3,11,4.2,15.1,0.9c4.7-3.8,5.5-9.6,3-14.9
	c-9.2-19.5-18.7-38.9-28.2-58.2c5.4,3.1,11,6.2,16.4,9.1c8.5,4.6,17.2-3,15.5-11.9c-1.1-5.4-2.5-10.7-4.2-15.9
	c10.5,11.9,20.9,24,31.4,35.9c3.6,4.1,8.2,4.3,12.2,2.5c17.2,19.6,35.6,38,56,54.4c5.8,4.7,11.8,9.2,17.8,13.7
	c4.6,3.3,11.7,1.2,14.9-3c3.4-4.7,3.2-11-0.9-15.1c-40.3-42-79.8-84.8-118.4-128.4c-46-77.2-93.4-153.6-142.3-229
	c-10.7-16.6-21.7-33.1-32.5-49.6c20.4-27.3,40.4-55,59.7-83.2c13.5-19.8,26.8-39.9,39.8-60.2c29.8-28.4,59.5-57,89.2-85.4
	C770.4,368.9,736.1,409.9,702,451c-20.9,25.1-41.7,50.1-62.7,75.2c-3.7,4.3-4.3,10.6,0,14.9c3.8,3.8,11.2,4.3,14.9,0
	c52.4-61.4,104.9-123,157.3-184.4c14.8-17.2,29.4-34.6,44.2-51.8c2.2-2.6,3.3-6,2.8-9.2c6-7.3,12.1-14.5,18.1-21.8
	C897.2,249.3,918.1,224.1,939,199.2z M676.1,421.7c-3.4,3.3-6.9,6.6-10.3,10c12.3-19.9,24.6-39.8,36.9-59.7
	c9.7-8.4,19.3-16.7,29.1-25.1c-10.7,18-21.8,35.7-33,53.3C691.1,407.3,683.6,414.6,676.1,421.7z M335.8,299.1
	c6.8,12.1,13.4,24.3,20.2,36.3c-12.3-17.1-24.7-34.1-37.1-51.2c3.1,2.6,6,5.2,9.1,7.9C330.8,294.4,333.2,296.8,335.8,299.1z
	 M444.3,280.6c7.9,14.9,15.3,30,22.2,45.3c-3.9-6.2-8-12.2-12.1-18.3c-6.4-9.6-12.8-19.2-19.3-28.7c-3.4-6.2-6.9-12.3-10.1-18.5
	c3.1,3.1,6.2,6.2,9.1,9.2C437.5,273.4,440.9,277,444.3,280.6z M231,268c-3.4-5.4-7-10.8-10.5-16.4c1,0.9,1.8,1.7,2.8,2.6
	c14.8,22.2,29.7,44.2,44.4,66.4c-1.5-1.2-3-2.6-4.4-3.8C252.5,300.6,241.6,284.3,231,268z M534.9,437.5c-0.2-0.4-0.4-0.7-0.6-1.1
	c1.5-2.1,2.8-4.1,4.3-6.2c2.8-1.1,5.3-2.7,7.5-4.9C542.4,429.4,538.6,433.4,534.9,437.5z M560.2,409.8c-0.1,0.2-0.4,0.4-0.5,0.6
	c-4.2,4.7-8.4,9.2-12.7,13.9c0.7-0.9,1.5-1.7,2.1-2.8c2.6-4.1,3.7-8.4,3.9-12.7c1.1-1.6,2.1-3.2,3.2-4.8
	c23.9-28.8,47.8-57.5,71.6-86.3c1.6-1.6,3.3-3.3,4.9-4.9C610.5,346.4,585.8,378.6,560.2,409.8z M348.2,613.5
	c-3.7,4.9-7.4,9.8-11.2,14.6c-3.3,2.1-6.8,4.2-10.2,6.3C334,627.6,341.1,620.5,348.2,613.5z M554.9,536.9c0.7-1.2,1.6-2.5,2.3-3.6
	c7.9,11.6,15.6,23.3,23.5,34.8c-1.4,1.7-2.7,3.4-4.1,5.3C569.6,561.3,562.3,549.1,554.9,536.9z M404,622.9c0.2,0.2,0.6,0.5,0.9,0.7
	c-9.8,13.4-19.7,26.8-29.4,40.4c8-12.3,16-24.7,24-37.1C400.9,625.6,402.4,624.2,404,622.9z M589.2,591.5c0.9-1.1,1.6-2.1,2.5-3.2
	c3.4,6.5,6.9,13.2,10.3,19.7C597.6,602.6,593.5,597,589.2,591.5z M658.3,217.2c-2.8,2.3-5.5,4.7-8.2,7c0.4-1,0.9-2.1,1.2-3.1
	c3-2.2,5.9-4.4,9-6.6C659.6,215.4,659,216.4,658.3,217.2z M612.7,253.7c-0.6,1.4-1.2,2.7-1.8,4.2c-1.5,1.2-2.8,2.5-4.3,3.7
	c1-1.7,2.1-3.3,3.1-5C610.6,255.7,611.6,254.7,612.7,253.7z M408.7,379.1c7.4,11,14.8,21.9,22.3,32.9c-0.4,0.4-0.7,0.7-1,1.1
	c-2.8-3.1-5.8-6.2-8.7-9.2c-2-3.6-4.1-7-6-10.6c-4.2-7.4-8.4-14.8-12.6-22.3C404.6,373.7,406.7,376.4,408.7,379.1z M600.1,697.6
	c5-1.7,7.8-6.3,7.4-11.1c8.7,11.3,17.5,22.8,26.2,34.1c2.5,4.4,4.8,8.9,7.3,13.3c-10.6-7.4-21.1-14.6-31.6-21.9
	C606.3,707.3,603.2,702.5,600.1,697.6z M687.9,325.8c-4.4,4.6-9,9-13.4,13.4c6.9-12.2,13.7-24.4,20.3-36.7
	c16-23.9,32-47.8,47.8-71.6c10-5.5,20.1-11,30.3-16.1c-3.9,9.4-9.1,18.2-14.8,26.8c-14.2,21.3-30.9,41.1-47.3,60.7
	c-1.1,1.4-2.2,2.7-3.4,4.1C700.9,312.9,694.3,319.4,687.9,325.8z M780.7,185.4c-4.6,2.2-9.1,4.4-13.7,6.8c1.4-1.8,2.7-3.7,4.2-5.5
	c3.2-0.7,6.4-1.4,9.6-1.8C780.7,184.9,780.7,185.1,780.7,185.4z M319.7,176.6c0,2,0.5,3.9,1.6,5.7c4.3,6.5,8.7,12.9,13,19.5
	c-6.9-9.7-13.9-19.3-20.9-28.9C315.5,174,317.6,175.4,319.7,176.6z M205.1,266.4c-7.1-6-14.3-12.2-21.5-18.2c-1.4-1.1-2.8-2-4.3-2.5
	c-17.7-21.5-34.3-44.1-46.4-68.8c11.9,9.5,23.8,19.1,35.3,28.9C180.1,226.2,192.4,246.4,205.1,266.4z M402.9,712.2
	c1.8-2.6,3.7-5.2,5.4-7.8c8-8.6,16.1-17.2,24.4-25.6c-17.5,24.4-35.3,48.5-53.4,72.4c-13.8,18.2-27.8,36.3-42,54.3
	C359.2,774.4,381,743.3,402.9,712.2z M672.5,818.9c-11.6-20.9-23.5-41.6-35.8-62.2c9.1,6.4,18.1,13,27,19.7
	c10.6,19.9,21.1,40,31.4,60.1c-7.1-4.7-14.2-9.4-21.2-14.2C673.6,821.2,673.2,820.1,672.5,818.9z M396.3,200.8
	c2.8,4.1,5.5,8.2,8.2,12.4c-1.5-1.2-3-2.6-4.6-3.8C398.7,206.4,397.5,203.6,396.3,200.8z M282.9,131.3c-3-4.1-6-8-9-12.1
	c-3.1-4.1-7.8-6.5-12.7-5.4c-7.4-13.9-14.8-27.7-22.2-41.6c21.4,22.4,42.1,45.4,62.2,68.9C295.2,137.8,289,134.5,282.9,131.3z
	 M281.8,200.5c8.6,15.9,17.4,31.8,26,47.6c-10.3-8.1-21.1-15.9-31.9-23.4c-1.1-1.5-2.2-3.1-3.3-4.6c-8.5-15.4-16.7-31-24.7-46.8
	c-3.6-7-9.1-16-8-24.4c0.9-6.2,5.4-7.3,10.3-7C260.7,161.6,271.2,181.2,281.8,200.5z M223.5,831c15.9-24.3,32-48.4,48.4-72.4
	c15.8-16.7,31.4-33.6,47.1-50.5c-3.8,5.9-7.6,11.7-11.3,17.6c-15.9,24.6-31.8,49.2-47.6,73.9C248,810.4,235.8,820.8,223.5,831z
	 M449.3,724.6c-35.1,38.2-71.4,75.2-108.9,110.9c42.6-53.5,83.8-108.2,123.5-164.1c3.2,3.4,6.5,6.9,9.8,10.2c2.5,2.6,4.9,5,7.4,7.5
	C470.6,701,460,712.9,449.3,724.6z M716.3,878.6c-2.1-2.6-4.2-5-6.3-7.6c1.1,0.7,2.3,1.4,3.4,2.1
	C714.5,874.9,715.3,876.7,716.3,878.6z M711,817.4c0.9,0.1,1.6,0.2,2.5,0.2c16.5,16,30.9,33.9,40,54.7c-7-3.9-13.9-8-20.8-12.2
	C725.6,845.8,718.4,831.5,711,817.4z M603.3,538.5c-8.4-12.6-16.7-25.1-25.2-37.7c10.1-16,20.1-32,29.9-48.1
	c12.9-11,25.9-21.9,38.8-32.9c1.1-0.9,2.1-1.8,3.2-2.7c-15.3,24.6-30.4,49.2-45.7,74c-6.4,10.3,8,20.9,16.5,12.8
	c8-7.8,16.1-15.4,24.1-23.1C631.4,500.1,617.5,519.5,603.3,538.5z"/>
</svg>
